<?xml version="1.0" encoding="utf-8"?>
<!-- Generator: Adobe Illustrator 20.1.0, SVG Export Plug-In . SVG Version: 6.00 Build 0)  -->
<svg version="1.1" width="87" height="44" id="Layer_1" xmlns="http://www.w3.org/2000/svg" xmlns:xlink="http://www.w3.org/1999/xlink" x="0px" y="0px"
	 viewBox="9 10 130 50" xml:space="preserve">
<style type="text/css">
	.st0{fill:#FFFFFF;}
	.st1{filter:url(#Adobe_OpacityMaskFilter);}
	.st2{mask:url(#mask-2_1_);fill:#FFFFFF;}
</style>
<path class="st0" d="M8.2,217.4V287h128v-69.6H8.2z M35.7,269.6c-4.7,0-8.6-3.8-8.6-8.6c0-4.7,3.8-8.6,8.6-8.6s8.6,3.9,8.6,8.6
	S40.5,269.6,35.7,269.6z M105.7,270.1c-5.3,0.3-9.6-4-9.3-9.3c0.2-3.9,3-7.2,6.8-8.1c6.3-1.4,12,4.3,10.5,10.5
	C112.9,267,109.5,269.8,105.7,270.1z M126.4,262.1c-1.5,0.6-8.3,1.5-11.7,1.9c0.4-1.1,0.6-2.4,0.5-3.8c-0.4-4.9-4.7-8.8-9.6-8.9
	c-5.4,0-9.8,4.4-9.8,9.7c0,1.4,0.3,2.7,0.8,3.9H44.8c0.5-1.3,0.8-2.7,0.8-4.2c-0.2-5-4.3-9.2-9.3-9.4c-5.6-0.2-10.1,4.3-10.1,9.7
	c0,1.3,0.2,2.6,0.7,3.7c-4.9-0.6-8.8-1.9-8.8-1.9c-3.1-1.6-4.2-7.3-1.2-10.5c3.1-3.4,9.7-5.4,17.1-6.9c6.6-1.3,16.7-2.2,16.7-2.2
	c10.9-6,18.8-8.2,21.2-8.6c2.3-0.4,4.3,0.3,4.3,0.3c-5.8,2.2-17,9-15.6,8.9c3.1-0.3,10.8-0.6,19.4-0.9l0.1-0.8c0,0,0.1-3.7,1.7-3.9
	c1.7-0.2,3.3-0.2,3.7,0.9c0.3,0.8,0.4,2.8,0.5,3.7c5-0.1,10-0.2,14.4-0.3v-0.4c0,0,0.1-3.7,1.7-3.9c1.7-0.2,3.3-0.2,3.7,0.9
	c0.3,0.7,0.4,2.4,0.5,3.4c4.4,0,7.5,0,8.3,0.2c3.8,0.9,13.6,2.2,13.6,2.2s-0.3,2.8-0.3,3.5c0,0.8,0.4,1.2,0.4,1.2s1.3,1.6,1.3,5
	C129.4,258.1,128.5,261.2,126.4,262.1z"/>
<path class="st0" d="M151.9,0.8l-0.2,69.8h128l0.1-69.8H151.9z M179.8,53.3c-4.7,0-8.6-3.8-8.6-8.6c0-4.7,3.8-8.6,8.6-8.6
	s8.6,3.8,8.6,8.6C188.4,49.5,184.6,53.3,179.8,53.3z M249.3,53.8c-4.9,0-8.8-3.9-8.8-8.8s3.9-8.8,8.8-8.8c4.8,0,8.8,3.9,8.8,8.8
	S254.2,53.8,249.3,53.8z M270.6,45.8c-1.5,0.6-8.3,1.5-11.7,1.9c0.3-0.9,0.5-1.9,0.5-3c0-5.4-4.3-9.7-9.7-9.7s-9.7,4.4-9.7,9.7
	c0,1.4,0.3,2.7,0.8,3.9H189c0.5-1.2,0.8-2.5,0.8-3.9c0-5.4-4.3-9.7-9.7-9.7c-5.4,0-9.7,4.4-9.7,9.7c0,1.3,0.2,2.6,0.7,3.7
	c-4.9-0.6-8.8-1.9-8.8-1.9c-3.1-1.6-4.2-7.3-1.2-10.5c3.1-3.4,9.7-5.4,17.1-6.9c6.6-1.3,16.7-2.2,16.7-2.2c10.9-6,18.8-8.2,21.2-8.6
	c2.3-0.5,9.1-0.6,9.1-0.6c5.9,0.1,11.6,0.9,16.6,2.3c8.3,2.3,13.7,5.6,16.9,6.3c3.8,0.9,13.6,2.2,13.6,2.2S272,31.3,272,32
	c0,0.8,0.4,1.2,0.4,1.2s1.3,1.7,1.4,5.1C273.6,41.8,272.7,44.8,270.6,45.8z"/>
<path class="st0" d="M296,1v70.2h128V1H296z M326,55.4c-4.7,0-8.6-3.8-8.6-8.6c0-4.7,3.8-8.6,8.6-8.6s8.6,3.8,8.6,8.6
	C334.6,51.5,330.8,55.4,326,55.4z M391.5,55c-4.9,0-8.8-3.9-8.8-8.8s3.9-8.8,8.8-8.8s8.9,3.9,8.8,8.8C400.3,51.1,396.4,55,391.5,55z
	 M413.7,40.3c-0.1,0.8-0.3,1.7-0.6,2.5c-0.7,1.7-2.5,3.5-2.5,3.5l-9,1.5c0.1-0.6,0.2-1.2,0.2-1.9c0-5.7-4.6-10.3-10.3-10.3
	s-10.3,4.6-10.3,10.3c0,0.8,0.1,1.6,0.3,2.3c-13.7,0.2-31.8,0.4-45.4,0.5c0.1-0.6,0.2-1.3,0.2-1.9c0-5.7-4.6-10.3-10.3-10.3
	s-10.3,4.6-10.3,10.3c0,0.7,0.2,1.5,0.3,2.2c-1.5,0.1-7-0.5-8-2c-1.1-1.7-1.7-4.3-1.9-5.9c-0.2-1.6,1.3-5.6,3.7-7.6
	c1.3-1.1,2.8-1.9,4.7-2.5c3.5-1.1,7.3-1.5,7.3-1.5l12.3-1.8c0,0,7.8-4.4,10.3-5.9s9.5-4.1,9.5-4.1s5-1.8,6.1-2
	c1.1-0.1,2.5-0.5,5.6-0.6c5.8-0.2,14.6-0.2,18.6-0.1c6.1,0.2,9.9,1.6,10.4,1.9c1.5,0.7,4.4,0.6,4.4,0.6s0.8,0.4,1.2,0.7
	c0.4,0.3,8.6,7.3,10.1,8.8s1.4,6.6,1.5,8.1c0.1,0.5,0.4,1.1,0.7,1.6c0.6,0.9,1.2,1.2,1.4,1.6C414.1,38.7,414,39.3,413.7,40.3z"/>
<path class="st0" d="M440.4,1L440,71.2L567.3,71l1-70H440.4z M471,57.4c-5.6,0-10.1-4.6-10.1-10.1c0-5.7,4.5-10.2,10.1-10.2
	s10.1,4.5,10.1,10.2C481.1,52.9,476.6,57.4,471,57.4z M537.6,57.5c-5.6,0-10.1-4.5-10.1-10.1c0-5.7,4.5-10.2,10.1-10.2
	c5.6,0,10.1,4.6,10.1,10.2S543.2,57.5,537.6,57.5z M555.7,47.5c-2,0.1-4.5,0.3-4.5,0.3c-0.5,1.5-1.2,2.2-1.6,2.4h-1.2
	c0.3-0.9,0.4-1.9,0.4-2.9c0-6.1-5-11.1-11.1-11.1c-6.1,0-11.1,5-11.1,11.1c0,1,0.1,2,0.4,3h-0.8l-44.3-0.4c0.2-0.8,0.3-1.7,0.3-2.6
	c0-6.2-5-11.2-11.2-11.2s-11.2,5-11.2,11.2c0,0.8,0,1.6,0.2,2.3h-0.8v0.1c-0.5,0-1.4,0-2.4-0.1h-0.5v-0.1c-0.9-0.2-1.9-0.4-2.9-0.9
	c-3-1.5-2.8-4.5-2.8-4.5s-0.1-5.6,0.8-8.5c1.6-5.2,9-6.1,9-6.1s7.2-1.2,9.7-1.6c2.6-0.4,6.1-0.8,6.1-0.8
	c2.6-1.2,17.6-10.2,17.6-10.2c3.4-2.3,29.2-1.5,29.2-1.5s14.9-0.1,24.7,1c2.2,0.2,2.8,1.4,2.8,1.4s4.4,8.3,4.7,10.2s0.3,7.6,0.3,7.6
	l1.6,2.4C557.6,41.5,557.4,47.2,555.7,47.5z"/>
<path class="st0" d="M7.6,73L8,143.1h128L135.6,73H7.6z M39.9,129.2c-4.7,0-8.6-3.8-8.6-8.6c0-4.7,3.8-8.6,8.6-8.6
	c4.7,0,8.6,3.9,8.6,8.6S44.7,129.2,39.9,129.2z M110.2,129.3c-4.9,0-8.8-3.9-8.8-8.8s3.9-8.8,8.8-8.8s8.8,3.9,8.8,8.8
	S115.1,129.3,110.2,129.3z M124.2,117.8c-0.3,1.2-0.9,1.8-0.9,1.8c-0.6,0.2-1.5,0.3-2.8,0.5c-0.1-5.5-4.6-10-10.2-10
	s-10.2,4.6-10.2,10.2v1.4c-0.6,0-0.9,0-0.9,0l-47.9,1.1l-1.3-0.1V120c0-5.6-4.6-10.2-10.2-10.2s-10.2,4.6-10.2,10.2v2
	c-1.5,0-6.1,0.1-7.3-0.3c-1.4-0.4-2.7-1-2.7-5.4c0-4.4,1.7-7.8,4.2-10.1c2.8-2.5,8-3.9,10.4-4.6c2.4-0.7,13.2-3.3,13.2-3.3
	s9.5-7.5,20.5-10.4s41.1,0,43.3,0.3c2.1,0.2,6,0.4,6.1,1.1c0.1,0.7-0.6,2-0.6,2c1.6,1.8,5.6,12.6,6,13.9c0.4,1.3,1.4,2.6,1.7,4
	C124.7,110.7,124.1,117.6,124.2,117.8z"/>
<path class="st0" d="M151.9,73.1l0.1,69.6h128l-0.1-69.6H151.9z M183.9,129.2c-4.7,0-8.6-3.8-8.6-8.6c0-4.7,3.8-8.6,8.6-8.6
	c4.7,0,8.6,3.9,8.6,8.6S188.7,129.2,183.9,129.2z M254.2,129.3c-4.9,0-8.8-3.9-8.8-8.8s3.9-8.8,8.8-8.8s8.8,4,8.8,8.8
	C263,125.4,259.1,129.3,254.2,129.3z M268.2,117.7c-0.3,1.2-0.9,1.8-0.9,1.8c-0.6,0.2-1.5,0.3-2.8,0.5c-0.1-5.5-4.6-10-10.2-10
	c-5.6,0-10.2,4.6-10.2,10.2v1.4c-0.6,0-0.9,0-0.9,0l-21,0.5c-0.1-2-0.1-5.3,0.2-7.8c0.1-0.8,1.2-3.3,1.2-3.3l0.9-2.1
	c2.6,0.9,6.3,0.7,9.8-2.1c5.2-4,3.9-8.7,12.8-14.2c-2.8-1.9-10.9-2.4-16.1-0.2c-7.4,3.2-8.7,7.6-9,11.1c-0.2,2.1,0.6,3.9,0.9,4.5
	c-0.7,1.9-1.7,4.3-2.1,4.5c-0.2,0-0.8-0.4-1.5-1.1c0.2-0.6,0.3-1.4,0.4-2.4c0.2-2.7-1.2-6.5-6.3-9c-3.6-1.8-6.8-1.5-10.1-2.2
	c1.1,2.9,2.5,10.1,6.6,13.2c2.6,1.9,6,2.2,8.2,1.5c1,0.9,2,2.1,2.2,2.6c0.4,1.1,0.1,4.8-0.1,7.1l-24.9,0.6l-1.3-0.1V120
	c0-5.6-4.6-10.2-10.2-10.2c-5.6,0-10.2,4.6-10.2,10.2v2c-1.5,0-6.1,0.1-7.3-0.3c-1.4-0.4-2.7-1-2.7-5.4c0-4.4,1.7-7.8,4.2-10.1
	c2.8-2.5,8-3.9,10.4-4.6s13.2-3.3,13.2-3.3s9.5-7.5,20.5-10.4s41.1,0,43.3,0.3c2.1,0.2,6,0.4,6.1,1.1c0.1,0.7-0.6,2-0.6,2
	c1.6,1.8,5.6,12.6,6,13.9c0.4,1.3,1.4,2.6,1.7,4C268.7,110.7,268.1,117.6,268.2,117.7z"/>
<path class="st0" d="M296,73.8l0.4,70h128l-0.4-70H296z M377.6,87.3l1.5-3.1l1.5,3.1l3.4,0.5l-2.4,2.4l0.6,3.4l-3.1-1.6l-3,1.6
	l0.6-3.4l-2.5-2.4L377.6,87.3z M364.6,87.3l1.5-3.1l1.5,3.1l3.4,0.5l-2.4,2.4l0.6,3.4l-3.1-1.6l-3,1.6l0.6-3.4l-2.5-2.4L364.6,87.3z
	 M351.6,87.3l1.5-3.1l1.5,3.1l3.4,0.5l-2.4,2.4l0.6,3.4l-3.1-1.6l-3,1.6l0.6-3.4l-2.5-2.4L351.6,87.3z M323.3,133.3
	c-4.7,0-8.6-3.8-8.6-8.6c0-4.7,3.8-8.6,8.6-8.6c4.7,0,8.6,3.8,8.6,8.6C331.9,129.4,328.1,133.3,323.3,133.3z M392.8,133.9
	c-4.7,0-8.6-3.8-8.6-8.6c0-4.7,3.8-8.6,8.6-8.6c4.8,0,8.7,3.9,8.6,8.6C401.4,130,397.6,133.9,392.8,133.9z M414,125.9
	c-1.5,0.6-8.3,1.5-11.7,1.9c0.3-0.9,0.5-1.9,0.5-3c0-5.4-4.3-9.7-9.7-9.7s-9.7,4.4-9.7,9.7c0,1.4,0.3,2.7,0.8,3.9h-51.8
	c0.5-1.2,0.8-2.5,0.8-3.9c0-5.4-4.3-9.7-9.7-9.7s-9.7,4.4-9.7,9.7c0,1.3,0.2,2.6,0.7,3.7c-4.9-0.6-8.8-1.9-8.8-1.9
	c-3.1-1.6-4.2-7.3-1.2-10.5c3.1-3.4,9.7-5.4,17.1-6.9c6.6-1.3,16.7-2.2,16.7-2.2c10.9-6,18.8-8.2,21.2-8.6c2.3-0.5,9.1-0.6,9.1-0.6
	c5.9,0.1,11.6,0.9,16.6,2.3c8.3,2.3,13.7,5.6,16.9,6.3c3.8,0.9,13.6,2.2,13.6,2.2s-0.3,2.8-0.3,3.5c0,0.8,0.4,1.2,0.4,1.2
	s1.3,1.6,1.4,5.1C417,121.9,416.1,125,414,125.9z"/>
<path class="st0" d="M440,72.9l0.2,70h128l-0.2-70H440z M462.2,128c-4.9,0-8.8-3.9-8.8-8.8c0-4.9,3.9-8.8,8.8-8.8
	c4.9,0,8.8,3.8,8.8,8.8C471,124,467.1,128,462.2,128z M538.2,128c-4.9,0-8.8-3.9-8.8-8.8c0-4.9,3.9-8.8,8.8-8.8
	c4.8,0,8.8,3.8,8.8,8.8C547,124.1,543.1,128,538.2,128z M565.6,115.6c-0.1,0.7-0.4,3.5-0.4,3.5s-0.1,1.4-1.2,1.4s-3.8,0.1-3.8,0.1
	s-0.3,1-2.2,1.2c-1.3,0.1-7,0.2-10.5,0.3c0.3-0.9,0.4-1.8,0.4-2.8c0-5.3-4.4-9.7-9.7-9.7s-9.7,4.3-9.7,9.7c0,1.1,0.2,2.3,0.6,3.3
	h-57.7c0.4-1,0.6-2.1,0.6-3.3c0-5.3-4.4-9.6-9.7-9.6c-5.3,0-9.7,4.3-9.7,9.7c0,0.9,0.1,1.7,0.3,2.5c-2.8-0.2-6.7-0.5-7.1-0.6
	c-0.7-0.3-3.6-0.7-3.6-5.8s1.9-8.5,4.8-10.3c3.5-2.1,12.9-3.1,17.8-3.4c4.8-0.5,11.8-1.1,11.8-1.1l0.5-0.3c0,0,6.3-4.4,8.5-6
	c2.4-1.8,6.1-4.2,7.5-4.8c1.3-0.6,4.4-0.8,11.6-1.3c2.2-0.2,4.9-0.2,8.2-0.2c12.5,0,19.6,0.8,23.9,2.5c4.2,1.8,12,8.5,12,8.5
	s13.2,1.1,14.4,1.4c0,0,0.3,0.4,0.3,1.5c-0.1,1.1-0.3,8.8,0.4,9.3c0,0,1.6,0.3,1.8,0.8S565.8,115,565.6,115.6z"/>
<path class="st0" d="M8.3,144.8l0.1,70.1h128l-0.1-70.1H8.3z M39.3,202.2c-4.9,0-8.9-4-8.9-8.9c0-4.9,4-8.9,8.9-8.9s8.9,4,8.9,8.9
	C48.2,198.2,44.2,202.2,39.3,202.2z M104.9,202.2c-5,0-9.1-4.1-9.1-9.1c0-5,4.1-9.1,9.1-9.1c5.1,0,9.1,4,9.1,9.1
	C114,198.1,109.9,202.2,104.9,202.2z M123.9,191.3c-1.2,0.7-4.1,1.4-5.7,1.6c-0.7,0.1-1.8,0.4-2.8,0.8c0-0.2,0-0.4,0-0.6
	c0-5.7-4.7-10.4-10.4-10.4s-10.4,4.7-10.4,10.4c0,0.9,0.2,1.8,0.4,2.6H49.1c0.1-0.7,0.2-1.4,0.2-2.1c0-1.6-0.4-3.1-1-4.4
	c-1.5-3.5-4.9-6-9-6c-0.1,0-0.1,0-0.2,0s-0.1,0-0.2,0c-5.7,0-10.3,4.5-10.4,10.2c-3-0.3-7.5-1-8.5-2c-1.1-1.2-1.2-4.4-1.2-4.4
	s0-5.2,0-6.3c0.1-1.4,1.7-2.7,1.7-2.7s0.3-2.1,2.1-4.2c1.9-2.1,5.2-2.7,5.2-2.7c8.2-1.4,19.4-2.7,19.4-2.7l12.8-9.2
	c2-1.3,8.5-1.2,8.5-1.2c3.8-0.2,8.6-0.2,13.6-0.2c10.9,0,22.7,0.4,27.7,0.5c1.5,0.1,1.8,0.1,2.6,0.3c0.8,0.2,1.5,0.7,1.5,0.7
	s3.1,0.4,4,0.6c0.9,0.1,1.2,1.3,1.2,1.3l-1.2,1c0,0,5.8,10.5,6.1,11.4c0.3,0.9,0.2,2.3,0.2,2.3l-0.1,3.2c0,0,0.3,0.7,0.6,1.1
	c0.3,0.4,0.4,1.4,0.4,1.4v7.4C125.1,189,125.2,190.5,123.9,191.3z"/>
<path class="st0" d="M152.3,145l-0.2,70.3h128l0.2-70.3H152.3z M175.2,202.3c-5.2,0-9.4-4.2-9.4-9.4c0-5.2,4.2-9.4,9.4-9.4
	s9.4,4.2,9.4,9.4C184.6,198.1,180.4,202.3,175.2,202.3z M249.3,201.7c-5.2,0-9.4-4.2-9.4-9.4s4.2-9.4,9.4-9.4s9.4,4.2,9.4,9.4
	S254.5,201.7,249.3,201.7z M276.3,193.2c-0.6,0.9-2.3,0.9-2.3,0.9h-14.1c0.1-0.6,0.2-1.2,0.2-1.8c0-6-4.8-10.8-10.8-10.8
	s-10.8,4.8-10.8,10.8c0,0.6,0.1,1.2,0.2,1.8h-52.6c0-0.3,0-0.5,0-0.8c0-6-4.8-10.8-10.8-10.8s-10.8,4.8-10.8,10.8c0,0.3,0,0.5,0,0.8
	h-5.6c0,0-3.7,1-3.5-7.6c0,0-0.3-3.1,1.3-3.6c0,0-0.6-4.7,1.8-7.3c1.7-1.9,7.6-5.1,26.8-5.7c0,0,13.4-9.9,16.3-10.8
	c2.6-0.7,6.2-1.5,20-1.4c1.6,0,6.8,0,7.5,0.4c0.8,0.7,1.7,4.1,2.1,6.3c0.4,2.1,0.5,3.2,0.9,5.4l40.8-0.9c0,0,1.7-0.2,1.7,1.5
	c0,1.8-0.3,13.7-0.3,13.7s1.4,0.3,2,1.5C276.8,186.8,276.8,192.3,276.3,193.2z"/>
<path class="st0" d="M296,144.8l0.1,70.2h128l-0.1-70.2H296z M323.6,203.4c-4.9,0-8.9-4-8.9-8.9s4-8.9,8.9-8.9s8.9,4,8.9,8.9
	S328.5,203.4,323.6,203.4z M391.2,203.4c-4.9,0-8.9-4-8.9-8.9s4-8.9,8.9-8.9c4.9,0,8.8,4,8.9,8.9
	C400.1,199.4,396.1,203.4,391.2,203.4z M415.8,192.5c-0.5,1-2.1,1.2-3.1,1.3c-1,0.2-8.4,1.2-11.7,1.6c0.1-0.4,0.1-0.7,0.1-1.1
	c0-5.4-4.4-9.8-9.8-9.8c-5.4,0-9.8,4.4-9.8,9.8c0,0.5,0,0.9,0.1,1.4c-14.2,0.2-31.4,0.5-48.5,0.7c0.1-0.7,0.2-1.4,0.2-2.1
	c0-5.4-4.4-9.8-9.8-9.8s-9.8,4.4-9.8,9.8c0,0.7,0,1.4,0.2,2.1c-0.8,0-1.7,0-1.8,0c-2.7-0.1-6.9,0.8-7.9-3c-0.6-2.3-0.2-6.7,0-7.8
	c0.5-2.8,1.2-4.2,2.7-5.7c2.5-2.5,6.2-4.3,8.9-5.4c2.7-1,8.7-3.2,8.7-3.2s10.2-7.6,13-9.4c2.4-1.6,6.2-3,8.1-3.3
	c3.7-0.6,16.3-1.2,29.3-1.7c14.1-0.5,21.9-0.4,25.2,0.5c2.1,0.6,6.2,5.3,8,7.9c2,2.8,5.1,7.2,5.3,10.2c0.1,1.5,0.1,2.8,0.4,4.8
	c0.5,0.2,1.5,1.4,1.7,1.9c0.5,1.1,0.6,4.6,0.6,4.6c0.1,1.5,0.1,2.1,0.1,3.9C416.2,191.5,416,192.1,415.8,192.5z"/>
<path class="st0" d="M439.9,145l0.2,69.9h128l-0.2-69.9H439.9z M467.7,199.8c-5.1,0-9.2-4.1-9.2-9.2c0-5.1,4.1-9.2,9.2-9.2
	c5.1,0,9.3,4.1,9.2,9.2C476.9,195.7,472.8,199.8,467.7,199.8z M538.1,199.8c-5.1,0-9.2-4.1-9.2-9.2c0-5.1,4.1-9.2,9.2-9.2
	c5.1,0,9.2,4.1,9.2,9.2C547.3,195.7,543.2,199.8,538.1,199.8z M561.4,187.4c-1,3.8-3,4.7-3,4.7l-9.8,0.1c0.1-0.6,0.2-1.2,0.2-1.8
	c0-5.9-4.8-10.7-10.7-10.7c-5.9,0-10.7,4.8-10.7,10.7c0,1,0.1,2,0.4,2.9h-50c0.2-0.9,0.4-1.9,0.4-2.9c0-5.8-4.8-10.6-10.6-10.6
	c-5.8,0-10.6,4.7-10.6,10.6c0,1,0.1,1.9,0.3,2.7c-3.6-0.3-8.3-0.8-8.9-1.6c-1.6-2.1-2.1-5.1-2.1-6.6c0-1.5,1.7-1.9,1.7-1.9
	c1.3-3.3,2.1-4.9,3.5-6.5s5.2-2.3,5.2-2.3l17.8-2.4c3.5-1.2,15.9-8.2,19.6-9.4c3.7-1.2,14-2.4,24.1-2.3c10.1,0.2,30.7,1,32.5,2.5
	s7.9,8.9,8.4,10.1s0.5,3.1,0.5,3.1s-0.2,2.6-0.2,4.2s1,1.7,1.4,2.2C561.5,183.1,562,185.3,561.4,187.4z"/>
<g id="Group-11">
	<g id="Clip-10">
	</g>
	<defs>
		<filter id="Adobe_OpacityMaskFilter" filterUnits="userSpaceOnUse" x="8.7" y="2.2" width="127.8" height="69.2">
			<feColorMatrix  type="matrix" values="1 0 0 0 0  0 1 0 0 0  0 0 1 0 0  0 0 0 1 0"/>
		</filter>
	</defs>
	<mask maskUnits="userSpaceOnUse" x="8.7" y="2.2" width="127.8" height="69.2" id="mask-2_1_">
		<g class="st1">
			<path id="path-1_1_" class="st0" d="M8.7,4.6h122.8v62H8.7V4.6z"/>
		</g>
	</mask>
	<path id="Fill-9" class="st2" d="M125.3,38.3c-0.3,3.6-1.1,6.8-3.1,7.7c-1.5,0.7-7.9,1.6-11.1,2
		c0.3-1,0.5-2,0.5-3.1c0-5.5-4.1-9.9-9.2-9.9c-5.1,0-9.2,4.4-9.2,9.9c0,1.4,0.3,2.8,0.8,4H44.9c0.5-1.2,0.8-2.6,0.8-4
		c0-5.5-4.1-9.9-9.2-9.9c-5.1,0-9.2,4.4-9.2,9.9c0,1.3,0.2,2.6,0.7,3.8c-4.6-0.7-8.3-2-8.3-2c-2.9-1.7-3.9-7.4-1.1-10.8
		c3-3.6,9.2-5.6,16.2-7.1c6.3-1.4,15.8-2.3,15.8-2.3c10.4-6.2,17.8-8.4,20.1-8.9c2.2-0.5,8.7-0.6,8.7-0.6c5.6,0.1,11,0.9,15.8,2.4
		c7.9,2.4,13,5.8,16,6.5c3.6,0.9,12.9,2.2,12.9,2.2s-0.3,2.9-0.3,3.6c0,0.8,0.4,1.2,0.4,1.2S125.6,34.7,125.3,38.3L125.3,38.3z
		 M102.4,54.2c-4.6,0-8.4-4.1-8.4-9.1s3.7-9.1,8.4-9.1c4.6,0,8.4,4.1,8.4,9.1S107.1,54.2,102.4,54.2L102.4,54.2z M36.6,53.8
		c-4.5,0-8.2-4-8.2-8.9c0-4.9,3.7-8.9,8.2-8.9c4.5,0,8.2,4,8.2,8.9C44.8,49.8,41.1,53.8,36.6,53.8L36.6,53.8z M8.7,71.1l126.8,0.2
		l1-69.2l-127,0L8.7,71.1z"/>
</g>
</svg>
