<?xml version="1.0" encoding="utf-8"?>
<!-- Generator: Adobe Illustrator 20.1.0, SVG Export Plug-In . SVG Version: 6.00 Build 0)  -->
<svg version="1.1" id="Layer_1" xmlns="http://www.w3.org/2000/svg" xmlns:xlink="http://www.w3.org/1999/xlink" x="0px" y="0px"
	 viewBox="0 0 144.3 936.3" style="enable-background:new 0 0 144.3 936.3;" xml:space="preserve">
<style type="text/css">
	.st0{fill:#FFFFFF;}
</style>
<g>
	<path id="path-1_1_" class="st0" d="M0-0.3h153.3v69H0V-0.3z"/>
</g>
<g>
	<path class="st0" d="M30.9,114.4c-3.2,0-5.8,2.6-5.8,5.8c0,3.2,2.6,5.8,5.8,5.8c3.3,0,5.9-2.7,5.8-5.8
		C36.7,117,34.1,114.4,30.9,114.4z M30.4,115.5l0.1,3.1c-0.3,0-0.6,0.2-0.9,0.5l-2.3-2C28.1,116.2,29.2,115.6,30.4,115.5z
		 M26.2,120.1c0-0.3,0.1-0.5,0.1-0.8l3,0.9c0,0.4,0.1,0.6,0.3,0.8l-2.7,1.6C26.5,121.8,26.2,121,26.2,120.1z M30.9,124.9
		c-0.8,0-1.5-0.2-2.2-0.6l1.7-2.6c0.2,0.1,0.3,0.1,0.5,0.1H31l0.8,3C31.5,124.9,31.2,124.9,30.9,124.9z M34.2,123.7l-2-2.4
		c0.1-0.1,0.3-0.3,0.4-0.7l3.1,0.3C35.5,122,35,123,34.2,123.7z M32.4,119.3c-0.1-0.3-0.3-0.5-0.6-0.7l1.2-2.8
		c1.1,0.5,1.9,1.4,2.3,2.4L32.4,119.3z"/>
	<path class="st0" d="M21.5,106.1c-0.4,0-3.3,0.3-5.4,1.7c-1.8,1.2-2.5,2.5-2.7,2.8c0,0-0.2,0.3-0.3,0.6c-0.2,0.3-0.2,0.6,0,0.7
		c0.2,0.3,0.7,0.3,1.2,0.3c0.6,0.1,1.7,0.1,2.4-0.6c0.6-0.7,1.2-1.6,2.3-2.5c1.1-1,2.9-1.8,3.1-2.2c0.1-0.2,0.1-0.4,0-0.5
		C22,106.2,21.8,106.1,21.5,106.1z"/>
	<path class="st0" d="M73.4,104.5l-5.1,0.1c-0.2,0-0.4,0.2-0.4,0.4s0.2,0.4,0.4,0.4l5.1-0.1c0.2,0,0.4-0.2,0.4-0.4
		S73.6,104.5,73.4,104.5z"/>
	<path class="st0" d="M106.9,114.4c-3.2,0-5.8,2.6-5.8,5.8c0,3.2,2.6,5.8,5.8,5.8s5.8-2.6,5.8-5.8
		C112.7,117,110.1,114.4,106.9,114.4z M106.4,115.5l0.1,3.1c-0.3,0-0.6,0.2-0.9,0.5l-2.3-2C104.1,116.2,105.2,115.6,106.4,115.5z
		 M102.8,122.6c-0.4-0.8-0.7-1.6-0.7-2.5c0-0.3,0.1-0.5,0.1-0.8l3,0.9c0,0.4,0.1,0.6,0.3,0.8L102.8,122.6z M106.9,124.9
		c-0.8,0-1.5-0.2-2.2-0.6l1.7-2.6c0.2,0.1,0.3,0.1,0.5,0.1l0.9,3C107.5,124.9,107.2,124.9,106.9,124.9z M110.1,123.7l-2-2.4
		c0.2-0.1,0.3-0.3,0.4-0.7l3.1,0.3C111.4,122,110.9,123,110.1,123.7z M108.4,119.3c-0.1-0.3-0.3-0.5-0.6-0.7l1.2-2.8
		c1,0.5,1.9,1.4,2.3,2.4L108.4,119.3z"/>
	<path class="st0" d="M72.6,92.2c-4.4,0.2-7.9,0.4-9.8,1.3c-3,1.4-11.3,8.2-11.3,8.2l23.8-0.5l2.3-9C77.6,92.2,75.9,92,72.6,92.2z"
		/>
	<path class="st0" d="M94.8,104.3l-5.1,0.1c-0.2,0-0.4,0.2-0.4,0.4c0,0.2,0.2,0.4,0.4,0.4l5.2-0.2c0.2,0,0.4-0.1,0.3-0.3
		C95.2,104.5,95,104.3,94.8,104.3z"/>
	<path class="st0" d="M103.6,94.3c-1.6-0.8-3.1-1.5-4.8-1.4l-0.8,8.3l7.7,0.1c0,0,1.9-2.6,1.3-4.3C106.6,96,105.5,95.3,103.6,94.3z"
		/>
	<path class="st0" d="M1.5,73.1l-0.3,71.2l142.5,1L144,73L1.5,73.1z M30.9,129c-4.9,0-8.8-3.9-8.8-8.8s3.9-8.8,8.8-8.8
		s8.8,3.8,8.8,8.8C39.7,125,35.8,129,30.9,129z M106.9,129c-4.9,0-8.8-3.9-8.8-8.8s3.9-8.8,8.8-8.8c4.8,0,8.8,3.8,8.8,8.8
		C115.7,125.1,111.8,129,106.9,129z M134.3,116.6c-0.1,0.7-0.4,3.5-0.4,3.5s-0.1,1.4-1.2,1.4c-1.1,0-3.8,0.1-3.8,0.1s-0.3,1-2.2,1.2
		c-1.3,0.1-7,0.2-10.5,0.3c0.3-0.9,0.4-1.8,0.4-2.8c0-5.3-4.4-9.7-9.7-9.7s-9.7,4.3-9.7,9.7c0,1.1,0.2,2.3,0.6,3.3H40.1
		c0.4-1,0.6-2.1,0.6-3.3c0-5.3-4.4-9.6-9.7-9.6s-9.7,4.3-9.7,9.7c0,0.9,0.1,1.7,0.3,2.5c-2.8-0.2-6.7-0.5-7.1-0.6
		c-0.7-0.3-3.6-0.7-3.6-5.8s1.9-8.5,4.8-10.3c3.5-2.1,12.9-3.1,17.8-3.4c4.8-0.5,11.8-1.1,11.8-1.1l0.5-0.3c0,0,6.3-4.4,8.5-6
		c2.4-1.8,6.1-4.2,7.5-4.8c1.3-0.6,4.4-0.8,11.6-1.3c2.2-0.2,4.9-0.2,8.2-0.2c12.5,0,19.6,0.8,23.9,2.5c4.2,1.8,12,8.5,12,8.5
		s13.2,1.1,14.4,1.4c0,0,0.3,0.4,0.3,1.5c-0.1,1.1-0.3,8.8,0.4,9.3c0,0,1.6,0.3,1.8,0.8C134.6,113.6,134.5,116,134.3,116.6z"/>
	<path class="st0" d="M80.7,92.1c0,0-1.1,9-1.2,9.2h15.1l1.5-8.6c0,0-3.7-0.4-7-0.5C84.1,92.1,80.7,92.1,80.7,92.1z"/>
</g>
<g id="Slices">
	<g id="Artboard-1" transform="translate(-754.000000, -583.000000)">
		<g id="Mask_all" transform="translate(754.000000, 583.000000)">
			<path id="Fill-1" class="st0" d="M25.4,32.5c-0.5,0-3.5,0.4-5.7,2c-1.9,1.4-2.7,2.8-2.9,3.2c0,0-0.2,0.3-0.4,0.7
				c-0.1,0.3-0.1,0.6,0,0.8c0.3,0.3,0.8,0.3,1.3,0.3c0.6,0,1.8,0.1,2.5-0.7s1.3-1.8,2.4-2.9c1.2-1.1,3-2,3.3-2.4
				c0.1-0.2,0.1-0.4,0-0.6C25.9,32.7,25.7,32.5,25.4,32.5"/>
			<path id="Fill-3" class="st0" d="M104.8,44.6c-0.1-0.3-0.3-0.6-0.6-0.7l1.2-3c1,0.5,1.8,1.5,2.2,2.6L104.8,44.6z M106.4,49.1
				l-1.9-2.5c0.2-0.2,0.3-0.4,0.4-0.7l3,0.3C107.7,47.4,107.2,48.4,106.4,49.1L106.4,49.1z M103.3,50.4c-0.8,0-1.5-0.2-2.2-0.6
				l1.7-2.7c0.2,0.1,0.3,0.1,0.5,0.1c0.1,0,0.1,0,0.2,0l0.7,3.2C103.9,50.4,103.6,50.4,103.3,50.4L103.3,50.4z M98.7,45.4
				c0-0.3,0-0.6,0.1-0.8l2.9,0.9c0,0.3,0.1,0.6,0.2,0.8L99.4,48C99,47.2,98.7,46.3,98.7,45.4L98.7,45.4z M102.8,40.4l0.1,3.2
				c-0.3,0.1-0.6,0.3-0.8,0.5L99.8,42C100.6,41.2,101.7,40.6,102.8,40.4L102.8,40.4z M103.3,39.3c-3.1,0-5.6,2.7-5.6,6.1
				c0,3.4,2.5,6.1,5.6,6.1s5.6-2.7,5.6-6.1C109,42,106.5,39.3,103.3,39.3L103.3,39.3z"/>
			<path id="Fill-5" class="st0" d="M76.2,38.4c-1.2,0-2.2,1-2.2,2.3s0.9,2.3,2.2,2.3c1.2,0,2.2-1,2.2-2.3
				C78.4,39.3,77.4,38.4,76.2,38.4"/>
			<path id="Fill-7" class="st0" d="M36.3,44.3c-0.1-0.3-0.3-0.6-0.6-0.7l1.2-3c1,0.5,1.8,1.5,2.2,2.6L36.3,44.3z M37.9,48.8
				L36,46.3c0.2-0.2,0.3-0.4,0.4-0.7l3,0.3C39.2,47.1,38.7,48.1,37.9,48.8L37.9,48.8z M34.9,50.1c-0.8,0-1.5-0.2-2.2-0.6l1.7-2.7
				c0.2,0.1,0.3,0.1,0.5,0.1c0.1,0,0.1,0,0.2,0l0.7,3.2C35.5,50.1,35.2,50.1,34.9,50.1L34.9,50.1z M30.2,45.1c0-0.3,0-0.6,0.1-0.8
				l2.9,0.9c0,0.3,0.1,0.6,0.2,0.8l-2.6,1.7C30.5,46.9,30.2,46,30.2,45.1L30.2,45.1z M34.4,40.1l0.1,3.2c-0.3,0.1-0.6,0.3-0.8,0.5
				l-2.3-2.1C32.1,40.9,33.2,40.3,34.4,40.1L34.4,40.1z M34.9,39c-3.1,0-5.6,2.7-5.6,6.1c0,3.4,2.5,6.1,5.6,6.1s5.6-2.7,5.6-6.1
				S38,39,34.9,39L34.9,39z"/>
			<g id="Group-11">
				<g id="Clip-10">
				</g>
				<path id="Fill-9" class="st0" d="M127.1,38.2c-0.3,3.8-1.2,7.1-3.2,8c-1.5,0.7-8.2,1.6-11.5,2c0.3-1,0.5-2.1,0.5-3.2
					c0-5.7-4.3-10.3-9.5-10.3c-5.3,0-9.5,4.6-9.5,10.3c0,1.5,0.3,2.9,0.8,4.2H43.5c0.5-1.3,0.8-2.7,0.8-4.2c0-5.7-4.3-10.3-9.5-10.3
					c-5.3,0-9.5,4.6-9.5,10.3c0,1.4,0.3,2.7,0.7,3.9c-4.8-0.7-8.6-2.1-8.6-2.1c-3.1-1.7-4.1-7.7-1.2-11.2c3.1-3.7,9.6-5.8,16.9-7.4
					c6.5-1.4,16.4-2.4,16.4-2.4c10.8-6.5,18.5-8.7,20.9-9.2c2.3-0.5,9-0.6,9-0.6c5.8,0.1,11.5,1,16.4,2.5c8.2,2.5,13.5,6,16.7,6.8
					c3.7,0.9,13.4,2.3,13.4,2.3s-0.3,3-0.3,3.8s0.4,1.3,0.4,1.3S127.4,34.5,127.1,38.2L127.1,38.2z M103.3,54.8
					c-4.8,0-8.7-4.2-8.7-9.4s3.9-9.4,8.7-9.4s8.7,4.2,8.7,9.4S108.1,54.8,103.3,54.8L103.3,54.8z M34.9,54.3c-4.7,0-8.5-4.1-8.5-9.2
					s3.8-9.2,8.5-9.2s8.5,4.1,8.5,9.2S39.6,54.3,34.9,54.3L34.9,54.3z M-5.9,72.1L144,73l-0.4-72.8L-6.1,0.3L-5.9,72.1z"/>
			</g>
			<path id="Fill-12" class="st0" d="M76.4,22.6c-2.1,0-3.9,1.1-5.1,2.5l1.9,1.7c0.8-0.9,1.8-1.5,3-1.5c1.5,0,2.4,0.9,2.4,2.3
				c0,2.6-4.5,4.3-3.8,8.6h3c-0.4-3.8,4.2-5.1,4.2-8.8C81.8,24.3,79.5,22.6,76.4,22.6"/>
		</g>
	</g>
</g>
<g>
	<path class="st0" d="M36.5,181.3c-3.1,0-5.7,2.5-5.7,5.7c0,3.1,2.5,5.7,5.7,5.7s5.7-2.5,5.7-5.7C42.2,183.9,39.7,181.3,36.5,181.3z
		 M36,182.4l0.1,3c-0.3,0.1-0.6,0.3-0.8,0.5l-2.3-2C33.8,183.1,34.8,182.5,36,182.4z M31.8,187c0-0.3,0.1-0.5,0.1-0.8l3,0.9
		c0,0.3,0.1,0.6,0.2,0.8l-2.6,1.5C32.1,188.7,31.8,187.9,31.8,187z M36.5,191.8c-0.8,0-1.5-0.2-2.2-0.6l1.7-2.6
		c0.2,0.1,0.3,0.1,0.5,0.1c0.1,0,0.1,0,0.2,0l0.7,3C37.1,191.8,36.8,191.8,36.5,191.8z M39.6,190.4l-1.9-2.3
		c0.2-0.1,0.3-0.4,0.4-0.6l3,0.2C40.9,188.8,40.4,189.7,39.6,190.4z M38,186.3c-0.1-0.3-0.3-0.5-0.6-0.7l1.1-2.7
		c1,0.5,1.9,1.3,2.3,2.4L38,186.3z"/>
	<path class="st0" d="M21.2,177.1c-1.9,1.3-2.7,2.7-2.9,3c0,0-0.2,0.4-0.4,0.7s-0.2,0.6,0,0.7c0.3,0.3,0.8,0.3,1.3,0.3
		c0.6,0,1.8,0,2.5-0.7c0.7-0.8,1.3-1.7,2.5-2.7s3.1-1.9,3.3-2.3c0.1-0.2,0.1-0.4,0.1-0.5c-0.1-0.2-0.3-0.3-0.6-0.3
		C26.5,175.2,23.4,175.6,21.2,177.1z"/>
	<path class="st0" d="M87.1,162.9c-3.3-0.3-6.7-0.4-9.8-0.2c-8.3,0.5-13.9,4-17,5.8c-3.6,2.1-5,3.5-5,3.5s15.9-0.3,29.5-0.6
		L87.1,162.9z"/>
	<path class="st0" d="M106,181.6c-3.1,0-5.7,2.5-5.7,5.7c0,3.1,2.5,5.7,5.7,5.7s5.7-2.6,5.7-5.7C111.7,184.2,109.2,181.6,106,181.6z
		 M105.5,182.7l0.1,3c-0.3,0.1-0.6,0.3-0.8,0.5l-2.3-2C103.3,183.4,104.3,182.8,105.5,182.7z M101.3,187.2c0-0.3,0.1-0.5,0.1-0.8
		l3,0.9c0,0.3,0.1,0.6,0.2,0.8l-2.6,1.5C101.6,188.9,101.3,188.1,101.3,187.2z M106,192c-0.8,0-1.5-0.2-2.2-0.6l1.7-2.6
		c0.2,0.1,0.3,0.1,0.5,0.1c0.1,0,0.1,0,0.2,0l0.7,3C106.6,192,106.3,192,106,192z M109.1,190.7l-1.9-2.3c0.2-0.1,0.3-0.4,0.4-0.6
		l3,0.2C110.4,189.1,109.9,190,109.1,190.7z M107.5,186.6c-0.1-0.3-0.3-0.5-0.6-0.7l1.1-2.7c1,0.5,1.9,1.3,2.3,2.4L107.5,186.6z"/>
	<path class="st0" d="M104,167.4l-2.5-1c-3.1-1.5-7.7-2.6-12.5-3.3l-1.8,8.2c8.7-0.2,15.9-0.4,16.2-0.4c0.9-0.2,1.8-0.8,1.8-1.9
		C105.2,168,104,167.4,104,167.4z"/>
	<path class="st0" d="M0.9,147.3L1.5,215l142.8-0.2l-0.6-67.8L0.9,147.3z M36.5,195.6c-4.7,0-8.6-3.8-8.6-8.6c0-4.7,3.8-8.6,8.6-8.6
		s8.6,3.8,8.6,8.6C45.1,191.7,41.3,195.6,36.5,195.6z M106,196.1c-4.9,0-8.8-3.9-8.8-8.8c0-4.9,3.9-8.8,8.8-8.8
		c4.8,0,8.8,3.9,8.8,8.8C114.8,192.2,110.9,196.1,106,196.1z M127.3,188c-1.5,0.6-8.3,1.5-11.7,1.9c0.3-0.9,0.5-1.9,0.5-3
		c0-5.4-4.3-9.7-9.7-9.7c-5.4,0-9.7,4.4-9.7,9.7c0,1.4,0.3,2.7,0.8,3.9H45.7c0.5-1.2,0.8-2.5,0.8-3.9c0-5.4-4.3-9.7-9.7-9.7
		s-9.7,4.4-9.7,9.7c0,1.3,0.2,2.6,0.7,3.7c-4.9-0.6-8.8-1.9-8.8-1.9c-3.1-1.6-4.2-7.3-1.2-10.5c3.1-3.4,9.7-5.4,17.1-6.9
		c6.6-1.3,16.7-2.2,16.7-2.2c10.9-6,18.8-8.2,21.2-8.6c2.3-0.5,9.1-0.6,9.1-0.6c5.9,0.1,11.6,0.9,16.6,2.3
		c8.3,2.3,13.7,5.6,16.9,6.3c3.8,0.9,13.6,2.2,13.6,2.2s-0.3,2.8-0.3,3.5c0,0.8,0.4,1.2,0.4,1.2s1.3,1.7,1.4,5.1
		C130.3,184,129.4,187.1,127.3,188z"/>
	<path class="st0" d="M83.7,174.8l-5.5,0.1c-0.2,0-0.4,0.2-0.4,0.4s0.2,0.4,0.4,0.4l5.5-0.1c0.3,0,0.4-0.2,0.4-0.4
		S83.9,174.8,83.7,174.8z"/>
</g>
<g>
	<path class="st0" d="M31.1,244.7c-0.5,0-3.3,0.6-5.2,2.2c-1.7,1.4-2.3,2.8-2.5,3.2c0,0-0.2,0.3-0.3,0.7c-0.1,0.3-0.1,0.6,0.1,0.7
		c0.2,0.2,0.7,0.2,1.2,0.2c0.6,0,1.7,0,2.3-0.8c0.6-0.8,1.1-1.8,2.1-2.9c1-1.1,2.7-2.1,2.9-2.5c0.1-0.2,0.1-0.4,0-0.5
		C31.6,244.8,31.4,244.7,31.1,244.7z"/>
	<path class="st0" d="M57.2,238.7c-3.5,3.2-5.3,6.3-5.3,6.3l23.8-0.4l1.2-11.2c0,0-8.5,0.1-11.3,0.2
		C62.7,233.7,59.8,236.3,57.2,238.7z"/>
	<path class="st0" d="M74,248.2h-5.5c-0.2,0-0.4,0.2-0.4,0.4s0.2,0.4,0.4,0.4H74c0.2,0,0.4-0.1,0.4-0.4
		C74.4,248.4,74.2,248.2,74,248.2z"/>
	<path class="st0" d="M106,259.2c-3.3,0-5.9,2.6-5.9,5.9s2.6,5.9,5.9,5.9c3.2,0,5.9-2.7,5.9-5.9C111.9,261.8,109.3,259.2,106,259.2z
		 M105.4,260.3l0.1,3.1c-0.3,0.1-0.6,0.3-0.8,0.5l-2.4-2C103.1,261,104.2,260.4,105.4,260.3z M101.8,267.5c-0.4-0.7-0.7-1.6-0.7-2.5
		c0-0.3,0.1-0.5,0.1-0.8l3.1,0.9c0,0.3,0.1,0.6,0.2,0.8L101.8,267.5z M106,269.9c-0.9,0-1.6-0.2-2.3-0.6l1.8-2.6
		c0.1,0.1,0.3,0.1,0.5,0.1c0,0,0.1,0,0.2,0l0.8,3C106.6,269.9,106.3,269.9,106,269.9z M109.2,268.6l-2-2.4c0.2-0.1,0.3-0.4,0.4-0.7
		l3.1,0.3C110.6,266.9,110,267.9,109.2,268.6z M107.5,264.3c-0.1-0.3-0.3-0.5-0.6-0.7l1.2-2.9c1,0.6,1.9,1.4,2.3,2.5L107.5,264.3z"
		/>
	<path class="st0" d="M98.2,248h-5.5c-0.2,0-0.4,0.2-0.4,0.4s0.2,0.4,0.4,0.4h5.5c0.3,0,0.4-0.2,0.4-0.4S98.4,248,98.2,248z"/>
	<path class="st0" d="M40.3,259.4c-3.3,0-5.9,2.6-5.9,5.9s2.6,5.9,5.9,5.9s5.9-2.6,5.9-5.9S43.6,259.4,40.3,259.4z M39.8,260.5
		l0.1,3.1c-0.3,0.1-0.6,0.3-0.8,0.5l-2.4-2C37.5,261.2,38.6,260.6,39.8,260.5z M36.1,267.8c-0.4-0.7-0.7-1.6-0.7-2.5
		c0-0.3,0.1-0.5,0.1-0.8l3.1,0.9c0,0.3,0.1,0.5,0.2,0.8L36.1,267.8z M40.3,270.2c-0.9,0-1.6-0.2-2.3-0.6l1.8-2.7
		c0.1,0.1,0.3,0.1,0.5,0.1c0.1,0,0.1,0,0.2,0.1l0.8,3C40.9,270.2,40.6,270.2,40.3,270.2z M43.5,268.9l-2-2.4
		c0.2-0.2,0.3-0.4,0.4-0.7l3.1,0.3C44.9,267.2,44.3,268.2,43.5,268.9z M41.8,264.6c-0.1-0.3-0.3-0.5-0.6-0.7l1.2-2.9
		c1.1,0.5,1.9,1.4,2.3,2.5L41.8,264.6z"/>
	<path class="st0" d="M109.2,235c0,0-0.3-0.3-0.9-0.6c-0.6-0.2-2.1-0.3-2.1-0.3l-9.1-0.1l3.2,10.4h5.1c0,0,0.5,0,1.2-0.1
		s1.4-1,1.4-1l3-4.4c0,0,0.3-0.6,0.3-1s-0.9-1.6-0.9-1.6L109.2,235z"/>
	<polygon class="st0" points="94.3,233.8 79.8,233.5 79.7,244.5 97.1,244.3 	"/>
	<path class="st0" d="M1.5,217.3l-0.3,69.5l143.2,0.8l0.3-69.5L1.5,217.3z M40.3,274.2c-4.9,0-8.9-4-8.9-8.9s4-8.9,8.9-8.9
		s8.9,4,8.9,8.9C49.2,270.2,45.2,274.2,40.3,274.2z M105.9,274.2c-5,0-9.1-4.1-9.1-9.1s4.1-9.1,9.1-9.1c5.1,0,9.1,4,9.1,9.1
		C115,270.1,110.9,274.2,105.9,274.2z M124.9,263.3c-1.2,0.7-4.1,1.4-5.7,1.6c-0.7,0.1-1.8,0.4-2.8,0.8c0-0.2,0-0.4,0-0.6
		c0-5.7-4.7-10.4-10.4-10.4s-10.4,4.7-10.4,10.4c0,0.9,0.2,1.8,0.4,2.6H50.1c0.1-0.7,0.2-1.4,0.2-2.1c0-1.6-0.4-3.1-1-4.4
		c-1.5-3.5-4.9-6-9-6c-0.1,0-0.1,0-0.2,0c-0.1,0-0.1,0-0.2,0c-5.7,0-10.3,4.5-10.4,10.2c-3-0.3-7.5-1-8.5-2
		c-1.1-1.2-1.2-4.4-1.2-4.4s0-5.2,0-6.3c0.1-1.4,1.7-2.7,1.7-2.7s0.3-2.1,2.1-4.2c1.9-2.1,5.2-2.7,5.2-2.7
		c8.2-1.4,19.4-2.7,19.4-2.7l12.8-9.2c2-1.3,8.5-1.2,8.5-1.2c3.8-0.2,8.6-0.2,13.6-0.2c10.9,0,22.7,0.4,27.7,0.5
		c1.5,0.1,1.8,0.1,2.6,0.3c0.8,0.2,1.5,0.7,1.5,0.7s3.1,0.4,4,0.6c0.9,0.1,1.2,1.3,1.2,1.3l-1.2,1c0,0,5.8,10.5,6.1,11.4
		c0.3,0.9,0.2,2.3,0.2,2.3l-0.1,3.2c0,0,0.3,0.7,0.6,1.1c0.3,0.4,0.4,1.4,0.4,1.4v7.4C126.1,261,126.2,262.5,124.9,263.3z"/>
</g>
<g>
	<path class="st0" d="M105,327.4c-3.1,0-5.7,2.5-5.7,5.7c0,3.1,2.5,5.7,5.7,5.7s5.7-2.6,5.7-5.7S108.2,327.4,105,327.4z
		 M104.5,328.4l0.1,3c-0.3,0.1-0.6,0.3-0.8,0.5l-2.3-2C102.3,329.1,103.3,328.5,104.5,328.4z M100.9,335.4c-0.4-0.7-0.7-1.5-0.7-2.4
		c0-0.3,0.1-0.5,0.1-0.8l3,0.9c0,0.3,0.1,0.6,0.2,0.7L100.9,335.4z M105,337.8c-0.8,0-1.5-0.2-2.2-0.6l1.7-2.6
		c0.2,0.1,0.3,0.1,0.5,0.1c0,0,0.1,0,0.2,0l0.7,3C105.6,337.8,105.3,337.8,105,337.8z M108.1,336.5l-1.9-2.3
		c0.2-0.2,0.3-0.4,0.4-0.7l3,0.3C109.4,334.9,108.9,335.8,108.1,336.5z M106.5,332.3c-0.1-0.3-0.3-0.5-0.6-0.7l1.2-2.8
		c1,0.5,1.8,1.4,2.2,2.5L106.5,332.3z"/>
	<path class="st0" d="M35.5,327.1c-3.1,0-5.7,2.5-5.7,5.7c0,3.1,2.5,5.7,5.7,5.7s5.7-2.6,5.7-5.7S38.7,327.1,35.5,327.1z M35,328.1
		l0.1,3c-0.3,0.1-0.6,0.3-0.8,0.5l-2.3-2C32.8,328.8,33.8,328.2,35,328.1z M30.8,332.7c0-0.3,0.1-0.5,0.1-0.8l3,0.9
		c0,0.3,0,0.6,0.2,0.7l-2.6,1.6C31.1,334.4,30.8,333.6,30.8,332.7z M35.5,337.5c-0.8,0-1.5-0.2-2.2-0.6l1.7-2.6
		c0.2,0.1,0.3,0.1,0.5,0.1c0.1,0,0.1,0,0.2,0l0.7,3C36.1,337.5,35.8,337.5,35.5,337.5z M38.6,336.2l-1.9-2.3
		c0.2-0.2,0.3-0.4,0.4-0.7l3,0.3C39.9,334.6,39.4,335.5,38.6,336.2z M37,332.1c-0.1-0.3-0.3-0.5-0.6-0.7l1.2-2.8
		c1,0.5,1.8,1.3,2.2,2.5L37,332.1z"/>
	<path class="st0" d="M26,321.1c-0.5-0.1-3.6,0.3-5.8,1.8c-1.9,1.3-2.7,2.7-2.9,3c0,0-0.2,0.4-0.4,0.7c-0.2,0.3-0.2,0.6,0,0.7
		c0.3,0.3,0.8,0.3,1.3,0.3c0.6,0,1.8,0,2.5-0.7c0.7-0.8,1.3-1.7,2.5-2.7s3.1-1.9,3.3-2.3c0.1-0.2,0.1-0.4,0.1-0.5
		C26.5,321.2,26.3,321.1,26,321.1z"/>
	<path class="st0" d="M2,290.3l0.3,70l139.5,0.4l-0.3-70L2,290.3z M35.5,341.3c-4.7,0-8.6-3.8-8.6-8.6c0-4.7,3.8-8.6,8.6-8.6
		s8.6,3.9,8.6,8.6S40.3,341.3,35.5,341.3z M105,341.8c-4.9,0-8.8-3.9-8.8-8.8s3.9-8.8,8.8-8.8c4.8,0,8.8,4,8.8,8.8
		C113.8,337.9,109.9,341.8,105,341.8z M126.2,333.8c-1.5,0.6-8.3,1.5-11.7,1.9c0.3-0.9,0.5-1.9,0.5-3c0-5.4-4.3-9.7-9.7-9.7
		c-5.4,0-9.7,4.4-9.7,9.7c0,1.4,0.3,2.7,0.8,3.9H44.6c0.5-1.2,0.8-2.5,0.8-3.9c0-5.4-4.3-9.7-9.7-9.7s-9.7,4.4-9.7,9.7
		c0,1.3,0.2,2.6,0.7,3.7c-4.9-0.6-8.8-1.9-8.8-1.9c-3.1-1.6-4.2-7.3-1.2-10.5c3.1-3.4,9.7-5.4,17.1-6.9c6.6-1.3,16.7-2.2,16.7-2.2
		c10.9-6,18.8-8.2,21.2-8.6c2.3-0.4,4.3,0.3,4.3,0.3c-5.8,2.2-17,9-15.6,8.9c3.1-0.3,10.8-0.6,19.4-0.9l0.1-0.8c0,0,0.1-3.7,1.7-3.9
		c1.7-0.2,3.3-0.2,3.7,0.9c0.3,0.8,0.4,2.8,0.5,3.7c5-0.1,10-0.2,14.4-0.3v-0.4c0,0,0.1-3.7,1.7-3.9c1.7-0.2,3.3-0.2,3.7,0.9
		c0.3,0.7,0.4,2.4,0.5,3.4c4.4,0,7.5,0,8.3,0.2c3.8,0.9,13.6,2.2,13.6,2.2s-0.3,2.8-0.3,3.5c0,0.8,0.4,1.2,0.4,1.2s1.3,1.6,1.3,5
		C129.2,329.8,128.3,332.9,126.2,333.8z"/>
	<path class="st0" d="M82.7,320.5l-5.5,0.1c-0.2,0-0.4,0.2-0.4,0.4s0.2,0.4,0.4,0.4l5.5-0.1c0.3,0,0.4-0.2,0.4-0.4
		S82.9,320.5,82.7,320.5z"/>
</g>
<g>
	<path class="st0" d="M29.2,392.3c-0.5,0-3.2,0.1-5.4,1.6c-2,1.3-3.1,2.9-3.3,3.2c0,0-0.2,0.4-0.4,0.7c-0.2,0.3-0.3,0.6-0.1,0.8
		c0.1,0.2,0.5,0.1,0.8,0.1c0.5,0,2.9-0.3,3.2-0.5c0,0,1-1.8,2.3-2.7s3.3-1.9,3.5-2.3c0.2-0.1,0.1-0.3,0-0.6
		C29.7,392.4,29.5,392.3,29.2,392.3z"/>
	<path class="st0" d="M74.7,392.8l-5.5,0.3c-0.2,0-0.4,0.2-0.4,0.4s0.2,0.4,0.4,0.4l5.5-0.3c0.2,0,0.4-0.2,0.4-0.4
		S74.9,392.8,74.7,392.8z"/>
	<path class="st0" d="M49.2,390.2c0,0,19.6-1.2,25.3-1.7l1.8-9.2c0,0-6.1,0-9.7,1.3C63,381.9,57.6,384.5,49.2,390.2z"/>
	<path class="st0" d="M103.6,401.3c-3.1,0-5.7,2.5-5.7,5.7c0,3.1,2.5,5.7,5.7,5.7c3.1,0,5.7-2.6,5.7-5.7S106.8,401.3,103.6,401.3z
		 M103,402.4l0.1,3c-0.3,0.1-0.6,0.3-0.8,0.5l-2.3-2C100.8,403.1,101.8,402.5,103,402.4z M99.5,409.3c-0.4-0.7-0.7-1.5-0.7-2.4
		c0-0.3,0.1-0.5,0.1-0.8l3,0.9c0,0.3,0.1,0.6,0.2,0.8L99.5,409.3z M103.5,411.7c-0.8,0-1.5-0.2-2.2-0.6l1.7-2.6
		c0.2,0.1,0.3,0.1,0.5,0.1c0.1,0,0.1,0,0.2,0l0.7,3C104.1,411.7,103.8,411.7,103.5,411.7z M106.6,410.4l-1.9-2.3
		c0.2-0.1,0.3-0.4,0.4-0.6l3,0.2C107.9,408.8,107.4,409.7,106.6,410.4z M105,406.3c-0.1-0.3-0.3-0.5-0.6-0.7l1.1-2.7
		c1,0.5,1.9,1.3,2.3,2.4L105,406.3z"/>
	<path class="st0" d="M38,401.9c-3.1,0-5.7,2.5-5.7,5.7c0,3.1,2.5,5.7,5.7,5.7s5.7-2.5,5.7-5.7C43.7,404.5,41.2,401.9,38,401.9z
		 M37.5,403l0.1,3c-0.3,0.1-0.6,0.3-0.8,0.5l-2.3-2C35.3,403.7,36.3,403.1,37.5,403z M33.3,407.6c0-0.3,0.1-0.5,0.1-0.8l3,0.9
		c0,0.3,0.1,0.6,0.2,0.8L34,410C33.6,409.3,33.3,408.5,33.3,407.6z M38,412.4c-0.8,0-1.5-0.2-2.2-0.6l1.7-2.6
		c0.2,0.1,0.3,0.1,0.5,0.1c0.1,0,0.1,0,0.2,0l0.7,3C38.6,412.4,38.3,412.4,38,412.4z M41.1,411l-1.9-2.3c0.2-0.1,0.3-0.4,0.4-0.6
		l3,0.2C42.4,409.4,41.9,410.3,41.1,411z M39.5,406.9c-0.1-0.3-0.3-0.5-0.6-0.7l1.1-2.7c1,0.5,1.9,1.3,2.3,2.4L39.5,406.9z"/>
	<path class="st0" d="M94.5,379.4c0,0-8.4-0.4-14.8-0.3l-0.7,9.2c0,0,11.6-0.3,18.9-2L94.5,379.4z"/>
	<path class="st0" d="M0.3,365.4l-0.8,66.5l144.4-0.4l0.8-66.5L0.3,365.4z M38,416.2c-4.7,0-8.6-3.8-8.6-8.6c0-4.7,3.8-8.6,8.6-8.6
		s8.6,3.8,8.6,8.6C46.6,412.3,42.8,416.2,38,416.2z M103.5,415.8c-4.9,0-8.8-3.9-8.8-8.8s3.9-8.8,8.8-8.8s8.9,3.9,8.8,8.8
		C112.3,411.9,108.4,415.8,103.5,415.8z M125.7,401.1c-0.1,0.8-0.3,1.7-0.6,2.5c-0.7,1.7-2.5,3.5-2.5,3.5l-9,1.5
		c0.1-0.6,0.2-1.2,0.2-1.9c0-5.7-4.6-10.3-10.3-10.3s-10.3,4.6-10.3,10.3c0,0.8,0.1,1.6,0.3,2.3c-13.7,0.2-31.8,0.4-45.4,0.5
		c0.1-0.6,0.2-1.3,0.2-1.9c0-5.7-4.6-10.3-10.3-10.3s-10.3,4.6-10.3,10.3c0,0.7,0.2,1.5,0.3,2.2c-1.5,0.1-7-0.5-8-2
		c-1.1-1.7-1.7-4.3-1.9-5.9s1.3-5.6,3.7-7.6c1.3-1.1,2.8-1.9,4.7-2.5c3.5-1.1,7.3-1.5,7.3-1.5l12.3-1.8c0,0,7.8-4.4,10.3-5.9
		s9.5-4.1,9.5-4.1s5-1.8,6.1-2c1.1-0.1,2.5-0.5,5.6-0.6c5.8-0.2,14.6-0.2,18.6-0.1c6.1,0.2,9.9,1.6,10.4,1.9
		c1.5,0.7,4.4,0.6,4.4,0.6s0.8,0.4,1.2,0.7s8.6,7.3,10.1,8.8s1.4,6.6,1.5,8.1c0.1,0.5,0.4,1.1,0.7,1.6c0.6,0.9,1.2,1.2,1.4,1.6
		S126,400.1,125.7,401.1z"/>
	<path class="st0" d="M102.4,380.1c-2.5-0.6-4.8-0.6-4.8-0.6l3.2,6.1c0,0,1.5-0.3,3.5-1.1c1.8-0.7,3.2-1.3,2.9-2.1
		C107,381.9,105.8,380.8,102.4,380.1z"/>
	<path class="st0" d="M98.9,391.3l-5.5,0.3c-0.2,0-0.4,0.2-0.4,0.4s0.2,0.4,0.4,0.4l5.5-0.3c0.3,0,0.4-0.2,0.4-0.4
		S99.1,391.3,98.9,391.3z"/>
</g>
<g>
	<path class="st0" d="M74,521.8c-8.3,0.8-18.2,7.6-19.5,9.2c-1.2,1.6-1.1,2.7-1.1,2.7l27.6-1.6l2-11.1C83,521,82.3,520.9,74,521.8z"
		/>
	<path class="st0" d="M110.2,546.9c-3.1,0-5.7,2.5-5.7,5.7c0,3.1,2.5,5.7,5.7,5.7s5.8-2.6,5.7-5.7
		C115.9,549.5,113.4,546.9,110.2,546.9z M109.7,547.9l0.1,3c-0.3,0.1-0.6,0.3-0.8,0.5l-2.3-2C107.5,548.6,108.5,548,109.7,547.9z
		 M105.5,552.5c0-0.3,0.1-0.5,0.1-0.8l3,0.9c0,0.3,0.1,0.6,0.2,0.7l-2.6,1.6C105.8,554.2,105.5,553.4,105.5,552.5z M110.2,557.3
		c-0.8,0-1.5-0.2-2.2-0.6l1.7-2.6c0.2,0.1,0.3,0.1,0.5,0.1c0.1,0,0.2,0,0.2,0l0.7,3C110.8,557.3,110.5,557.3,110.2,557.3z
		 M113.3,556l-1.9-2.3c0.2-0.2,0.3-0.4,0.4-0.7l3,0.3C114.6,554.4,114.1,555.3,113.3,556z M111.7,551.8c-0.1-0.3-0.3-0.5-0.6-0.7
		l1.2-2.8c1,0.6,1.8,1.4,2.2,2.5L111.7,551.8z"/>
	<path class="st0" d="M26.2,538c-2.1,1.4-3.2,3.1-3.4,3.5c0,0-0.2,0.3-0.4,0.7c-0.2,0.4-0.3,0.7-0.1,0.9c0.1,0.2,0.5,0.1,0.8,0.1
		s1.5-0.2,2.4-0.4c0.4-0.1,0.6-0.2,0.8-0.3c0.1-0.1,0.2-0.2,0.5-0.6c0.5-0.7,1.2-1.5,2-2.2c1.4-1.2,3.3-2.3,3.5-2.7
		c0.1-0.3,0.1-0.5,0.1-0.7c-0.1-0.2-0.3-0.3-0.6-0.3C31.3,536,28.5,536.4,26.2,538z"/>
	<path class="st0" d="M39.9,547c-3.1,0-5.7,2.5-5.7,5.7c0,3.1,2.5,5.7,5.7,5.7c3.1,0,5.7-2.6,5.7-5.7C45.6,549.6,43.1,547,39.9,547z
		 M39.4,548l0.1,3c-0.3,0.1-0.6,0.3-0.8,0.5l-2.3-2C37.2,548.7,38.2,548.1,39.4,548z M35.8,555c-0.4-0.7-0.7-1.5-0.7-2.4
		c0-0.3,0.1-0.5,0.1-0.8l3,0.9c0,0.3,0.1,0.6,0.2,0.7L35.8,555z M39.9,557.4c-0.8,0-1.5-0.2-2.2-0.6l1.7-2.6
		c0.2,0.1,0.3,0.1,0.5,0.1c0,0,0.1,0,0.2,0l0.7,3C40.5,557.4,40.2,557.4,39.9,557.4z M43,556.1l-1.9-2.3c0.2-0.2,0.3-0.4,0.4-0.7
		l3,0.3C44.3,554.5,43.8,555.4,43,556.1z M41.3,551.9c-0.1-0.3-0.3-0.5-0.6-0.7l1.2-2.8c1.1,0.6,1.9,1.4,2.2,2.5L41.3,551.9z"/>
	<path class="st0" d="M78.7,536.3l-5.8,0.3c-0.2,0-0.4,0.2-0.4,0.4s0.2,0.4,0.4,0.4l5.8-0.3c0.2,0,0.4-0.2,0.4-0.4
		S78.9,536.3,78.7,536.3z"/>
	<path class="st0" d="M-0.1,504.6l1.2,71.9l144.3-0.5l-1.2-71.9L-0.1,504.6z M39.9,561.2c-4.7,0-8.6-3.8-8.6-8.6
		c0-4.7,3.8-8.6,8.6-8.6c4.7,0,8.6,3.9,8.6,8.6S44.7,561.2,39.9,561.2z M110.2,561.3c-4.9,0-8.8-3.9-8.8-8.8s3.9-8.8,8.8-8.8
		s8.8,3.9,8.8,8.8S115.1,561.3,110.2,561.3z M124.2,549.8c-0.3,1.2-0.9,1.8-0.9,1.8c-0.6,0.2-1.5,0.3-2.8,0.5
		c-0.1-5.5-4.6-10-10.2-10s-10.2,4.6-10.2,10.2v1.4c-0.6,0-0.9,0-0.9,0l-47.9,1.1l-1.3-0.1V552c0-5.6-4.6-10.2-10.2-10.2
		s-10.2,4.6-10.2,10.2v2c-1.5,0-6.1,0.1-7.3-0.3c-1.4-0.4-2.7-1-2.7-5.4s1.7-7.8,4.2-10.1c2.8-2.5,8-3.9,10.4-4.6
		c2.4-0.7,13.2-3.3,13.2-3.3s9.5-7.5,20.5-10.4s41.1,0,43.3,0.3c2.1,0.2,6,0.4,6.1,1.1s-0.6,2-0.6,2c1.6,1.8,5.6,12.6,6,13.9
		s1.4,2.6,1.7,4C124.7,542.7,124.1,549.6,124.2,549.8z"/>
	<path class="st0" d="M109.4,522.6c-0.9-0.6-3.1-0.7-3.1-0.7l1.5,8.3c0,0,2.6-1.5,3.1-2.9C111.5,525.8,110.9,523.5,109.4,522.6z"/>
	<path class="st0" d="M103,521.6c-9.8-0.5-16.2-0.4-16.2-0.4L86,531.8l17.4-0.7L103,521.6z"/>
	<path class="st0" d="M104.8,535.6l-5.8,0.3c-0.2,0-0.4,0.2-0.4,0.4s0.2,0.4,0.4,0.4l5.8-0.3c0.2,0,0.4-0.2,0.4-0.4
		S105,535.6,104.8,535.6z"/>
</g>
<g>
	<path class="st0" d="M39.9,619c-3.1,0-5.7,2.5-5.7,5.7c0,3.1,2.5,5.7,5.7,5.7c3.1,0,5.7-2.6,5.7-5.7C45.6,621.6,43.1,619,39.9,619z
		 M39.4,620l0.1,3c-0.3,0.1-0.6,0.3-0.8,0.5l-2.3-2C37.2,620.7,38.2,620.1,39.4,620z M35.2,624.6c0-0.3,0.1-0.5,0.1-0.8l3,0.9
		c0,0.3,0.1,0.6,0.2,0.8l-2.6,1.5C35.5,626.3,35.2,625.5,35.2,624.6z M39.8,629.4c-0.8,0-1.5-0.2-2.2-0.6l1.7-2.6
		c0.2,0.1,0.3,0.1,0.5,0.1c0.1,0,0.1,0,0.2,0l0.7,3C40.4,629.4,40.1,629.4,39.8,629.4z M43,628l-1.9-2.3c0.2-0.1,0.3-0.4,0.4-0.6
		l3,0.2C44.3,626.4,43.8,627.3,43,628z M41.4,623.9c-0.1-0.3-0.3-0.5-0.6-0.7l1.1-2.7c1,0.5,1.9,1.3,2.3,2.4L41.4,623.9z"/>
	<path class="st0" d="M110.2,618.9c-3.1,0-5.7,2.5-5.7,5.7c0,3.1,2.5,5.7,5.7,5.7s5.8-2.6,5.7-5.7
		C115.9,621.5,113.4,618.9,110.2,618.9z M109.7,619.9l0.1,3c-0.3,0.1-0.6,0.3-0.8,0.5l-2.3-2C107.5,620.6,108.5,620,109.7,619.9z
		 M105.5,624.5c0-0.3,0.1-0.5,0.1-0.8l3,0.9c0,0.3,0.1,0.6,0.2,0.8l-2.6,1.5C105.8,626.2,105.5,625.4,105.5,624.5z M110.2,629.3
		c-0.8,0-1.5-0.2-2.2-0.6l1.7-2.6c0.2,0.1,0.3,0.1,0.5,0.1c0.1,0,0.1,0,0.2,0l0.7,3C110.8,629.3,110.5,629.3,110.2,629.3z
		 M113.3,628l-1.9-2.3c0.2-0.1,0.3-0.4,0.4-0.6l3,0.2C114.6,626.4,114.1,627.3,113.3,628z M111.7,623.8c-0.1-0.3-0.3-0.5-0.6-0.7
		l1.1-2.7c1,0.5,1.9,1.3,2.3,2.4L111.7,623.8z"/>
	<path class="st0" d="M1.1,578.9l1.2,69l141.3,0.8l1.1-69.8H1.1z M39.9,633.2c-4.7,0-8.6-3.8-8.6-8.6c0-4.7,3.8-8.6,8.6-8.6
		c4.7,0,8.6,3.9,8.6,8.6S44.7,633.2,39.9,633.2z M110.2,633.3c-4.9,0-8.8-3.9-8.8-8.8s3.9-8.8,8.8-8.8s8.8,4,8.8,8.8
		C119,629.4,115.1,633.3,110.2,633.3z M124.2,621.7c-0.3,1.2-0.9,1.8-0.9,1.8c-0.6,0.2-1.5,0.3-2.8,0.5c-0.1-5.5-4.6-10-10.2-10
		s-10.2,4.6-10.2,10.2v1.4c-0.6,0-0.9,0-0.9,0l-21,0.5c-0.1-2-0.1-5.3,0.2-7.8c0.1-0.8,1.2-3.3,1.2-3.3l0.9-2.1
		c2.6,0.9,6.3,0.7,9.8-2.1c5.2-4,3.9-8.7,12.8-14.2c-2.8-1.9-10.9-2.4-16.1-0.2c-7.4,3.2-8.7,7.6-9,11.1c-0.2,2.1,0.6,3.9,0.9,4.5
		c-0.7,1.9-1.7,4.3-2.1,4.5c-0.2,0-0.8-0.4-1.5-1.1c0.2-0.6,0.3-1.4,0.4-2.4c0.2-2.7-1.2-6.5-6.3-9c-3.6-1.8-6.8-1.5-10.1-2.2
		c1.1,2.9,2.5,10.1,6.6,13.2c2.6,1.9,6,2.2,8.2,1.5c1,0.9,2,2.1,2.2,2.6c0.4,1.1,0.1,4.8-0.1,7.1l-24.9,0.6l-1.3-0.1V624
		c0-5.6-4.6-10.2-10.2-10.2s-10.2,4.6-10.2,10.2v2c-1.5,0-6.1,0.1-7.3-0.3c-1.4-0.4-2.7-1-2.7-5.4s1.7-7.8,4.2-10.1
		c2.8-2.5,8-3.9,10.4-4.6c2.4-0.7,13.2-3.3,13.2-3.3s9.5-7.5,20.5-10.4s41.1,0,43.3,0.3c2.1,0.2,6,0.4,6.1,1.1s-0.6,2-0.6,2
		c1.6,1.8,5.6,12.6,6,13.9s1.4,2.6,1.7,4C124.7,614.7,124.1,621.6,124.2,621.7z"/>
	<path class="st0" d="M26.2,610c-2.1,1.4-3.2,3.1-3.4,3.5c0,0-0.2,0.3-0.4,0.7c-0.2,0.4-0.3,0.7-0.1,0.9c0.1,0.2,0.5,0.1,0.8,0.1
		s1.5-0.2,2.4-0.4c0.4-0.1,0.6-0.2,0.8-0.3c0.1-0.1,0.2-0.2,0.5-0.6c0.5-0.7,1.2-1.5,2-2.2c1.4-1.2,3.3-2.3,3.5-2.7
		c0.1-0.3,0.1-0.5,0.1-0.7c-0.1-0.2-0.3-0.3-0.6-0.3C31.3,608,28.5,608.4,26.2,610z"/>
</g>
<g>
	<path class="st0" d="M105.8,694.7c-3.1,0-5.7,2.5-5.7,5.7c0,3.1,2.5,5.7,5.7,5.7s5.8-2.6,5.7-5.7
		C111.5,697.3,109,694.7,105.8,694.7z M105.3,695.7l0.1,3c-0.3,0.1-0.6,0.3-0.8,0.5l-2.3-2C103.1,696.4,104.1,695.8,105.3,695.7z
		 M101.1,700.3c0-0.3,0.1-0.5,0.1-0.8l3,0.9c0,0.3,0.1,0.6,0.2,0.7l-2.6,1.6C101.4,702,101.1,701.2,101.1,700.3z M105.8,705.1
		c-0.8,0-1.5-0.2-2.2-0.6l1.7-2.6c0.2,0.1,0.3,0.1,0.5,0.1c0.1,0,0.2,0,0.2,0l0.7,3C106.4,705.1,106.1,705.1,105.8,705.1z
		 M108.9,703.8l-1.9-2.3c0.2-0.3,0.3-0.4,0.4-0.7l3,0.3C110.2,702.2,109.7,703.1,108.9,703.8z M107.3,699.6
		c-0.1-0.3-0.3-0.5-0.6-0.7l1.2-2.7c1,0.5,1.8,1.3,2.2,2.4L107.3,699.6z"/>
	<path class="st0" d="M21,689.9c-1.9,1.3-2.7,2.7-2.9,3c0,0-0.2,0.4-0.4,0.7c-0.2,0.3-0.2,0.6,0,0.7c0.3,0.3,0.8,0.3,1.3,0.3
		c0.6,0,1.8,0,2.5-0.7c0.7-0.8,1.3-1.7,2.5-2.7s3.1-1.9,3.3-2.3c0.1-0.1,0.1-0.3,0.1-0.5c-0.1-0.2-0.3-0.3-0.6-0.3
		C26.3,688,23.2,688.4,21,689.9z"/>
	<path class="st0" d="M83.5,687.6l-5.5,0.1c-0.2,0-0.4,0.2-0.4,0.4s0.2,0.4,0.4,0.4l5.5-0.1c0.2,0,0.4-0.2,0.4-0.4
		S83.7,687.6,83.5,687.6z"/>
	<path class="st0" d="M36.3,694c-3.1,0-5.7,2.5-5.7,5.7c0,3.1,2.5,5.7,5.7,5.7c3.1,0,5.7-2.5,5.7-5.7C42,696.6,39.5,694,36.3,694z
		 M35.8,695.1l0.1,3c-0.4,0.1-0.6,0.3-0.8,0.5l-2.3-2C33.6,695.8,34.6,695.2,35.8,695.1z M32.2,702.1c-0.4-0.7-0.7-1.5-0.7-2.4
		c0-0.3,0.1-0.5,0.1-0.8l3,0.9c0,0.3,0.1,0.4,0.2,0.7L32.2,702.1z M36.3,704.5c-0.8,0-1.5-0.2-2.2-0.6l1.7-2.6
		c0.2,0.1,0.3,0.1,0.5,0.1c0,0,0.1,0,0.2,0l0.7,3C36.9,704.5,36.6,704.5,36.3,704.5z M39.4,703.2l-1.9-2.3c0.1-0.2,0.3-0.4,0.4-0.7
		l3,0.3C40.7,701.6,40.2,702.5,39.4,703.2z M37.7,699c-0.1-0.3-0.3-0.5-0.6-0.7l1.2-2.8c1.1,0.5,1.9,1.4,2.2,2.5L37.7,699z"/>
	<path class="st0" d="M77,675.6c-8.3,0.5-13.9,4-17,5.8c-3.6,2.1-5,3.5-5,3.5s16-0.4,29.6-0.7l2.3-8.4
		C83.6,675.5,80.2,675.4,77,675.6z"/>
	<path class="st0" d="M1.1,648.2V720l143.2,0.3v-71.8L1.1,648.2z M90.6,662.3l1.5-3.1l1.5,3.1l3.4,0.5l-2.4,2.4l0.6,3.4l-3.1-1.6
		l-3,1.6l0.6-3.4l-2.5-2.4L90.6,662.3z M77.6,662.3l1.5-3.1l1.5,3.1l3.4,0.5l-2.4,2.4l0.6,3.4l-3.1-1.6l-3,1.6l0.6-3.4l-2.5-2.4
		L77.6,662.3z M64.6,662.3l1.5-3.1l1.5,3.1l3.4,0.5l-2.4,2.4l0.6,3.4l-3.1-1.6l-3,1.6l0.6-3.4l-2.5-2.4L64.6,662.3z M36.3,708.3
		c-4.7,0-8.6-3.8-8.6-8.6c0-4.7,3.8-8.6,8.6-8.6c4.7,0,8.6,3.8,8.6,8.6C44.9,704.4,41.1,708.3,36.3,708.3z M105.8,708.9
		c-4.7,0-8.6-3.8-8.6-8.6c0-4.7,3.8-8.6,8.6-8.6s8.7,3.9,8.6,8.6C114.4,705,110.6,708.9,105.8,708.9z M127,700.9
		c-1.5,0.6-8.3,1.5-11.7,1.9c0.3-0.9,0.5-1.9,0.5-3c0-5.4-4.3-9.7-9.7-9.7c-5.4,0-9.7,4.4-9.7,9.7c0,1.4,0.3,2.7,0.8,3.9H45.4
		c0.5-1.2,0.8-2.5,0.8-3.9c0-5.4-4.3-9.7-9.7-9.7s-9.7,4.4-9.7,9.7c0,1.3,0.2,2.6,0.7,3.7c-4.9-0.6-8.8-1.9-8.8-1.9
		c-3.1-1.6-4.2-7.3-1.2-10.5c3.1-3.4,9.7-5.4,17.1-6.9c6.6-1.3,16.7-2.2,16.7-2.2c10.9-6,18.8-8.2,21.2-8.6c2.3-0.5,9.1-0.6,9.1-0.6
		c5.9,0.1,11.6,0.9,16.6,2.3c8.3,2.3,13.7,5.6,16.9,6.3c3.8,0.9,13.6,2.2,13.6,2.2s-0.3,2.8-0.3,3.5c0,0.8,0.4,1.2,0.4,1.2
		s1.3,1.6,1.4,5.1C130,696.9,129.1,700,127,700.9z"/>
	<path class="st0" d="M103.7,680.3l-2.5-1c-3.1-1.4-7.6-2.6-12.5-3.2l-1.8,8.1c8.7-0.3,15.9-0.4,16.2-0.5c0.9-0.1,1.8-0.7,1.8-1.8
		C104.9,680.9,103.7,680.3,103.7,680.3z"/>
</g>
<g>
	<path class="st0" d="M71.6,751.7h-6.1c-0.2,0-0.4,0.2-0.4,0.4s0.2,0.4,0.4,0.4h6.1c0.2,0,0.4-0.2,0.4-0.4S71.8,751.7,71.6,751.7z"
		/>
	<path class="st0" d="M18.5,751.6c-1.9,1.3-2.3,2-2.5,2.3c0,0-0.5,1-0.6,1.4c-0.1,0.3-0.1,0.6,0.1,0.7c0.2,0.3,0.6,0.3,1.1,0.3
		c0.6,0,1.8,0,2.5-0.7c0.7-0.8,1.3-1.7,2.5-2.7s3.1-1.9,3.3-2.3c0.1-0.2,0.1-0.4,0.1-0.5c-0.1-0.2-0.3-0.3-0.6-0.3
		C23.9,749.8,20.7,750.1,18.5,751.6z"/>
	<path class="st0" d="M1.1,720.4v71.8l143.2-0.3l-0.1-71.8L1.1,720.4z M32.2,778.3c-5.2,0-9.4-4.2-9.4-9.4s4.2-9.4,9.4-9.4
		s9.4,4.2,9.4,9.4S37.4,778.3,32.2,778.3z M106.3,777.7c-5.2,0-9.4-4.2-9.4-9.4s4.2-9.4,9.4-9.4c5.2,0,9.4,4.2,9.4,9.4
		S111.5,777.7,106.3,777.7z M133.3,769.2c-0.6,0.9-2.3,0.9-2.3,0.9h-14.1c0.1-0.6,0.2-1.2,0.2-1.8c0-6-4.8-10.8-10.8-10.8
		s-10.8,4.8-10.8,10.8c0,0.6,0.1,1.2,0.2,1.8H43.1c0-0.3,0-0.5,0-0.8c0-6-4.8-10.8-10.8-10.8s-10.8,4.8-10.8,10.8c0,0.3,0,0.5,0,0.8
		h-5.6c0,0-3.7,1-3.5-7.6c0,0-0.3-3.1,1.3-3.6c0,0-0.6-4.7,1.8-7.3c1.7-1.9,7.6-5.1,26.8-5.7c0,0,13.4-9.9,16.3-10.8
		c2.6-0.7,6.2-1.5,20-1.4c1.6,0,6.8,0,7.5,0.4c0.8,0.7,1.7,4.1,2.1,6.3c0.4,2.1,0.5,3.2,0.9,5.4l40.8-0.9c0,0,1.7-0.2,1.7,1.5
		c0,1.8-0.3,13.7-0.3,13.7s1.4,0.3,2,1.5C133.8,762.8,133.8,768.3,133.3,769.2z"/>
	<path class="st0" d="M106.3,762.2c-3.4,0-6.1,2.7-6.1,6.1c0,3.4,2.7,6.1,6.1,6.1s6.1-2.7,6.1-6.1S109.7,762.2,106.3,762.2z
		 M105.8,763.4l0.1,3.2c-0.4,0.1-0.7,0.2-0.9,0.5l-2.4-2.1C103.4,764.1,104.5,763.5,105.8,763.4z M101.3,768.3
		c0-0.3,0.1-0.5,0.1-0.8l3.2,0.9c0,0.3,0.1,0.6,0.2,0.8l-2.8,1.7C101.6,770.1,101.3,769.2,101.3,768.3z M106.3,773.3
		c-0.8,0-1.6-0.2-2.3-0.6l1.8-2.7c0.1,0.1,0.3,0.1,0.5,0.1c0.1,0,0.1,0,0.2,0l0.8,3.1C107,773.3,106.6,773.3,106.3,773.3z
		 M109.6,772.1l-2-2.5c0.2-0.2,0.3-0.4,0.4-0.7l3.2,0.3C111,770.3,110.4,771.4,109.6,772.1z M107.9,767.5c-0.2-0.3-0.4-0.5-0.7-0.7
		l1.3-3c1.1,0.6,1.9,1.5,2.4,2.6L107.9,767.5z"/>
	<path class="st0" d="M32.2,762.8c-3.4,0-6.1,2.7-6.1,6.1c0,3.4,2.7,6.1,6.1,6.1s6.1-2.7,6.1-6.1S35.6,762.8,32.2,762.8z M31.7,764
		l0.1,3.2c-0.4,0.1-0.7,0.2-0.9,0.5l-2.4-2.1C29.3,764.7,30.4,764.1,31.7,764z M27.2,768.9c0-0.3,0.1-0.5,0.1-0.8l3.2,0.9
		c0,0.3,0.1,0.6,0.2,0.8l-2.8,1.7C27.5,770.7,27.2,769.8,27.2,768.9z M32.2,773.9c-0.8,0-1.6-0.2-2.3-0.6l1.8-2.7
		c0.1,0.1,0.3,0.1,0.5,0.1c0.1,0,0.1,0,0.2,0l0.8,3.1C32.9,773.9,32.5,773.9,32.2,773.9z M35.5,772.7l-2-2.5
		c0.2-0.2,0.3-0.4,0.4-0.7l3.2,0.3C36.9,770.9,36.3,772,35.5,772.7z M33.9,768.1c-0.2-0.3-0.4-0.5-0.7-0.7l1.3-3
		c1.1,0.6,1.9,1.5,2.4,2.6L33.9,768.1z"/>
	<path class="st0" d="M54.3,740.3l-8.7,6.9l-0.7,0.7h28l0.7-11.5c0,0-7.5,0-11.1,0.2C59,736.8,54.3,740.3,54.3,740.3z"/>
	<path class="st0" d="M84.4,738.9c0,0-0.1-0.9-0.7-1.6c-0.3-0.5-0.8-0.9-1.6-0.9c-2,0-5.1,0.1-5.1,0.1l0.4,11.4h5.1
		c0,0,1.6,0,2.2-0.8s0.4-2.1,0.4-3.4C84.8,740.5,84.4,738.9,84.4,738.9z"/>
</g>
<g>
	<path class="st0" d="M41.8,819.8l23.5-1l0.6-10.2c0,0-8.2,0.2-12.4,2.3C49.8,812.8,41.8,819.8,41.8,819.8z"/>
	<path class="st0" d="M65.1,822.3l-5.3,0.3c-0.2,0-0.4,0.2-0.4,0.4s0.2,0.4,0.4,0.4l5.3-0.2c0.2-0.1,0.3-0.2,0.4-0.5
		C65.5,822.5,65.3,822.3,65.1,822.3z"/>
	<path class="st0" d="M26,825.7c-0.5,0-3.1,0.5-5.1,2.1c-1.8,1.5-2.6,3.1-2.8,3.5c0,0-0.2,0.3-0.3,0.7c-0.1,0.3-0.2,0.7,0,0.8
		s0.5,0.1,0.8,0c0.4-0.1,2.7-0.7,3-0.9c0,0,0.9-1.8,2-2.8s2.9-2.2,3.1-2.6c0.1-0.2,0-0.4-0.1-0.6C26.5,825.8,26.3,825.7,26,825.7z"
		/>
	<path class="st0" d="M-0.1,794v69.3l144.2,0.6V794H-0.1z M35.6,851.4c-4.9,0-8.9-4-8.9-8.9s4-8.9,8.9-8.9s8.9,4,8.9,8.9
		S40.5,851.4,35.6,851.4z M103.2,851.4c-4.9,0-8.9-4-8.9-8.9s4-8.9,8.9-8.9s8.8,4,8.9,8.9C112.1,847.4,108.1,851.4,103.2,851.4z
		 M127.8,840.5c-0.5,1-2.1,1.2-3.1,1.3c-1,0.2-8.4,1.2-11.7,1.6c0.1-0.4,0.1-0.7,0.1-1.1c0-5.4-4.4-9.8-9.8-9.8s-9.8,4.4-9.8,9.8
		c0,0.5,0,0.9,0.1,1.4c-14.2,0.2-31.4,0.5-48.5,0.7c0.1-0.7,0.2-1.4,0.2-2.1c0-5.4-4.4-9.8-9.8-9.8s-9.8,4.4-9.8,9.8
		c0,0.7,0,1.4,0.2,2.1c-0.8,0-1.7,0-1.8,0c-2.7-0.1-6.9,0.8-7.9-3c-0.6-2.3-0.2-6.7,0-7.8c0.5-2.8,1.2-4.2,2.7-5.7
		c2.5-2.5,6.2-4.3,8.9-5.4c2.7-1,8.7-3.2,8.7-3.2s10.2-7.6,13-9.4c2.4-1.6,6.2-3,8.1-3.3c3.7-0.6,16.3-1.2,29.3-1.7
		c14.1-0.5,21.9-0.4,25.2,0.5c2.1,0.6,6.2,5.3,8,7.9c2,2.8,5.1,7.2,5.3,10.2c0.1,1.5,0.1,2.8,0.4,4.8c0.5,0.2,1.5,1.4,1.7,1.9
		c0.5,1.1,0.6,4.6,0.6,4.6c0.1,1.5,0.1,2.1,0.1,3.9C128.2,839.5,128,840.1,127.8,840.5z"/>
	<path class="st0" d="M103.2,836.5c-3.3,0-6,2.7-6,6s2.7,6,6,6s6-2.7,6-6S106.5,836.5,103.2,836.5z M102.7,837.6l0.1,3.2
		c-0.4,0.1-0.7,0.3-0.8,0.5l-2.4-2.1C100.3,838.3,101.4,837.7,102.7,837.6z M98.9,845c-0.4-0.7-0.7-1.6-0.7-2.5
		c0-0.3,0.1-0.5,0.1-0.8l3.1,0.9c0.1,0.3,0.1,0.6,0.2,0.8L98.9,845z M103.2,847.5c-0.8,0-1.6-0.2-2.3-0.6l1.8-2.7
		c0.1,0.1,0.3,0.1,0.5,0.1c0,0,0.1,0,0.2,0l0.8,3.1C103.9,847.5,103.5,847.5,103.2,847.5z M106.4,846.2l-2-2.5
		c0.2-0.2,0.4-0.4,0.4-0.7l3.2,0.3C107.8,844.5,107.2,845.5,106.4,846.2z M104.7,841.7c-0.1-0.3-0.3-0.5-0.6-0.7l1.2-2.9
		c1.1,0.5,2,1.4,2.4,2.5L104.7,841.7z"/>
	<path class="st0" d="M35.6,836.5c-3.3,0-6,2.7-6,6s2.7,6,6,6s6-2.7,6-6S38.9,836.5,35.6,836.5z M35.1,837.6l0.1,3.2
		c-0.4,0.1-0.7,0.3-0.8,0.5l-2.4-2.1C32.7,838.3,33.8,837.7,35.1,837.6z M30.7,842.5c0-0.3,0.1-0.5,0.1-0.8l3.1,0.9
		c0,0.3,0.1,0.6,0.2,0.8l-2.7,1.6C31,844.3,30.7,843.4,30.7,842.5z M35.6,847.5c-0.8,0-1.6-0.2-2.3-0.6l1.8-2.7
		c0.1,0.1,0.3,0.1,0.5,0.1c0.1,0,0.1,0,0.2,0l0.8,3.1C36.3,847.5,35.9,847.5,35.6,847.5z M38.9,846.2l-2-2.5
		c0.1-0.2,0.3-0.4,0.4-0.7l3.2,0.3C40.3,844.5,39.7,845.5,38.9,846.2z M37.1,841.7c-0.1-0.3-0.3-0.5-0.6-0.7l1.3-2.9
		c1,0.5,1.9,1.4,2.3,2.5L37.1,841.7z"/>
	<path class="st0" d="M76.4,822.2l-5.3,0.3c-0.2,0-0.4,0.2-0.4,0.4s0.2,0.4,0.4,0.4l5.3-0.3c0.2,0,0.4-0.2,0.4-0.4
		S76.6,822.2,76.4,822.2z"/>
	<path class="st0" d="M109.7,809.3c-1.8-1.8-5.4-1.7-7.7-1.7c-2,0-8.1,0-8.1,0l1.2,10.6l17.3-0.3c0,0,2.2,0.1,2.4-0.4
		c0.2-0.5,0-0.9-0.9-2.3C113,813.8,111.3,810.9,109.7,809.3z"/>
	<path class="st0" d="M79.6,807.9c-3.8,0.2-9.7,0.4-9.7,0.4v10.6l20.4-0.8l-0.5-10.4C89.8,807.7,83.3,807.7,79.6,807.9z"/>
</g>
<g>
	<path class="st0" d="M23.1,896.9c-2.1,1.4-3.2,3.1-3.4,3.5c0,0-0.2,0.3-0.4,0.7c-0.2,0.4-0.3,0.7-0.1,0.9c0.1,0.2,0.5,0.1,0.8,0.1
		s1.5-0.2,2.4-0.4c0.4-0.1,0.6-0.2,0.8-0.3c0.1-0.1,0.2-0.2,0.5-0.6c0.5-0.7,1.2-1.5,2-2.2c1.4-1.2,3.3-2.3,3.5-2.7
		c0.1-0.2,0.1-0.4,0.1-0.7c-0.1-0.2-0.3-0.3-0.6-0.3C28.2,894.9,25.4,895.3,23.1,896.9z"/>
	<path class="st0" d="M72.5,895l-5.8,0.3c-0.2,0-0.4,0.2-0.4,0.4s0.2,0.4,0.4,0.4l5.8-0.3c0.3,0,0.5-0.2,0.4-0.4
		C72.9,895.2,72.7,895,72.5,895z"/>
	<path class="st0" d="M107.1,904.4c-3.4,0-6.2,2.8-6.2,6.2c0,3.5,2.7,6.3,6.2,6.3c3.4,0,6.2-2.8,6.2-6.3
		C113.3,907.2,110.6,904.4,107.1,904.4z M106.6,905.6l0.1,3.3c-0.4,0-0.7,0.2-0.9,0.5l-2.5-2.1C104.1,906.4,105.3,905.7,106.6,905.6
		z M102.6,913.3c-0.4-0.7-0.7-1.6-0.7-2.6c0-0.3,0.1-0.6,0.1-0.9l3.2,1c0.1,0.3,0.2,0.6,0.3,0.8L102.6,913.3z M107.1,915.7
		c-0.9,0-1.7-0.2-2.4-0.6l1.9-2.8c0.1,0.1,0.3,0.1,0.5,0.1c0.1,0,0.1,0,0.2,0l0.8,3.2C107.8,915.7,107.4,915.7,107.1,915.7z
		 M110.5,914.5l-2.1-2.6c0.2-0.2,0.3-0.4,0.4-0.7l3.3,0.3C111.9,912.7,111.3,913.7,110.5,914.5z M108.8,909.8
		c-0.2-0.3-0.4-0.5-0.7-0.7l1.3-3.1c1.1,0.6,2,1.5,2.5,2.7L108.8,909.8z"/>
	<path class="st0" d="M50.7,893.4l23.4-1.7l1.9-9.1c0,0-9,0.7-13.4,2.4C58.2,886.8,50.7,893.4,50.7,893.4z"/>
	<path class="st0" d="M36.7,904.4c-3.5,0-6.3,2.8-6.3,6.2c0,3.5,2.8,6.3,6.3,6.3s6.3-2.8,6.2-6.3C42.9,907.2,40.2,904.4,36.7,904.4z
		 M36.2,905.6l0.1,3.3c-0.4,0-0.7,0.2-0.9,0.5l-2.5-2.1C33.7,906.4,34.9,905.7,36.2,905.6z M32.2,913.4c-0.4-0.7-0.7-1.6-0.7-2.6
		c0-0.3,0.1-0.6,0.1-0.9l3.3,0.9c0.1,0.3,0.1,0.6,0.3,0.8L32.2,913.4z M36.7,915.7c-0.9,0-1.7-0.2-2.4-0.6l1.9-2.8
		c0.1,0.1,0.3,0.1,0.5,0.1c0.1,0,0.1,0,0.2,0l0.8,3.2C37.4,915.7,37,915.7,36.7,915.7z M40.2,914.5l-2.1-2.6
		c0.2-0.2,0.3-0.4,0.4-0.7l3.3,0.3C41.6,912.7,41,913.7,40.2,914.5z M38.4,909.8c-0.2-0.3-0.4-0.5-0.7-0.7L39,906
		c1.1,0.6,2,1.5,2.5,2.7L38.4,909.8z"/>
	<path class="st0" d="M1.1,865.7l0.1,70.8h142.9l-0.1-70.8H1.1z M36.7,919.8c-5.1,0-9.2-4.1-9.2-9.2c0-5.1,4.1-9.2,9.2-9.2
		s9.3,4.1,9.2,9.2C45.9,915.7,41.8,919.8,36.7,919.8z M107.1,919.8c-5.1,0-9.2-4.1-9.2-9.2c0-5.1,4.1-9.2,9.2-9.2s9.2,4.1,9.2,9.2
		C116.3,915.7,112.2,919.8,107.1,919.8z M130.4,907.4c-1,3.8-3,4.7-3,4.7l-9.8,0.1c0.1-0.6,0.2-1.2,0.2-1.8
		c0-5.9-4.8-10.7-10.7-10.7c-5.9,0-10.7,4.8-10.7,10.7c0,1,0.1,2,0.4,2.9h-50c0.2-0.9,0.4-1.9,0.4-2.9c0-5.8-4.8-10.6-10.6-10.6
		S26,904.5,26,910.4c0,1,0.1,1.9,0.3,2.7c-3.6-0.3-8.3-0.8-8.9-1.6c-1.6-2.1-2.1-5.1-2.1-6.6S17,903,17,903c1.3-3.3,2.1-4.9,3.5-6.5
		s5.2-2.3,5.2-2.3l17.8-2.4c3.5-1.2,15.9-8.2,19.6-9.4s14-2.4,24.1-2.3c10.1,0.2,30.7,1,32.5,2.5s7.9,8.9,8.4,10.1
		c0.5,1.2,0.5,3.1,0.5,3.1s-0.2,2.6-0.2,4.2s1,1.7,1.4,2.2C130.5,903.1,131,905.3,130.4,907.4z"/>
	<path class="st0" d="M110.1,884c-1.5-0.7-8-1.4-12.1-1.4l3.3,8h16.4l-5.1-5.1C112.6,885.5,111.6,884.7,110.1,884z"/>
	<path class="st0" d="M95.3,882.4c0,0-9.9-0.4-16,0v8.9l18.1-0.7L95.3,882.4z"/>
	<path class="st0" d="M97.8,894.3l-5.8,0.3c-0.2,0-0.4,0.2-0.4,0.4s0.2,0.4,0.4,0.4l5.8-0.3c0.2,0,0.4-0.2,0.4-0.4
		S98,894.3,97.8,894.3z"/>
</g>
<g>
	<path class="st0" d="M105.6,473.3c-3.7,0-6.7,3-6.7,6.7s3,6.7,6.7,6.7s6.7-3,6.7-6.7S109.3,473.3,105.6,473.3z M105,474.2l0.1,3.5
		c-0.4,0.1-0.7,0.3-0.9,0.6l-2.6-2.3C102.5,475,103.7,474.4,105,474.2z M100.8,482.2c-0.5-0.7-0.7-1.6-0.7-2.6c0-0.4,0-0.7,0.1-1.1
		l3.5,1c0,0.3,0.1,0.6,0.3,0.8L100.8,482.2z M105.6,485.1c-1,0-2-0.3-2.8-0.8l2.2-3.2c0.1,0.1,0.3,0.1,0.5,0.1c0.1,0,0.1,0,0.1,0
		l1,3.8C106.3,485.1,106,485.1,105.6,485.1z M109.3,483.7l-2.5-3c0.2-0.2,0.3-0.5,0.4-0.7l3.9,0.3
		C110.9,481.6,110.3,482.8,109.3,483.7z M107.1,478.6c-0.2-0.3-0.4-0.5-0.7-0.7l1.4-3.3c1.3,0.5,2.3,1.5,2.8,2.7L107.1,478.6z"/>
	<path class="st0" d="M24.5,465.1c-2,1.3-3.1,2.9-3.3,3.2c0,0-0.2,0.4-0.4,0.7c-0.2,0.3-0.3,0.6-0.1,0.8c0.1,0.2,0.5,0.1,0.8,0.1
		c0.5,0,2.9-0.3,3.2-0.5c0,0,1-1.8,2.3-2.7c1.2-0.9,3.2-1.9,3.4-2.3c0.1-0.2,0.1-0.4,0.1-0.6c-0.1-0.2-0.3-0.3-0.6-0.3
		C29.4,463.5,26.7,463.6,24.5,465.1z"/>
	<path class="st0" d="M75.9,469.4c-0.1-0.4-0.3-0.8-0.5-1.1c-0.2-0.3-0.5-0.5-0.9-0.7c-0.4-0.1-0.8-0.2-1.4-0.2h-1.6v6.6h2
		c0.4,0,0.7-0.1,1-0.2s0.6-0.3,0.8-0.5c0.3-0.3,0.5-0.6,0.6-1c0.2-0.4,0.3-0.9,0.2-1.5C76.1,470.3,76,469.8,75.9,469.4z"/>
	<path class="st0" d="M39,473.1c-3.7,0-6.7,3-6.7,6.7s3,6.7,6.7,6.7s6.7-3,6.7-6.7S42.7,473.1,39,473.1z M38.3,474.4l0.1,3.5
		c-0.3,0.1-0.6,0.3-0.9,0.6l-2.6-2.3C35.8,475.2,37,474.6,38.3,474.4z M34.2,482.4c-0.5-0.7-0.7-1.6-0.7-2.6c0-0.4,0-0.7,0.1-1.1
		l3.5,1c0,0.3,0.1,0.6,0.3,0.8L34.2,482.4z M39,485.3c-1,0-2-0.3-2.8-0.8l2.2-3.2c0.1,0.1,0.3,0.1,0.5,0.1H39l1,3.8
		C39.7,485.3,39.4,485.3,39,485.3z M42.7,483.9l-2.5-3c0.2-0.2,0.3-0.5,0.4-0.7l3.9,0.3C44.3,481.8,43.7,483,42.7,483.9z
		 M40.5,478.8c-0.2-0.3-0.4-0.5-0.7-0.7l1.4-3.3c1.3,0.5,2.3,1.5,2.8,2.7L40.5,478.8z"/>
	<path class="st0" d="M1.1,431.6v70.9l142,0.7v-70.9L1.1,431.6z M39,490c-5.6,0-10.1-4.6-10.1-10.1c0-5.7,4.5-10.2,10.1-10.2
		s10.1,4.5,10.1,10.2C49.1,485.5,44.6,490,39,490z M105.6,490.1c-5.6,0-10.1-4.5-10.1-10.1c0-5.7,4.5-10.2,10.1-10.2
		s10.1,4.6,10.1,10.2S111.2,490.1,105.6,490.1z M123.7,480.1c-2,0.1-4.5,0.3-4.5,0.3c-0.5,1.5-1.2,2.2-1.6,2.4h-1.2
		c0.3-0.9,0.4-1.9,0.4-2.9c0-6.1-5-11.1-11.1-11.1s-11.1,5-11.1,11.1c0,1,0.1,2,0.4,3h-0.8l-44.3-0.4c0.2-0.8,0.3-1.7,0.3-2.6
		c0-6.2-5-11.2-11.2-11.2s-11.2,5-11.2,11.2c0,0.8,0,1.6,0.2,2.3h-0.8v0.1c-0.5,0-1.4,0-2.4-0.1h-0.5v-0.1c-0.9-0.2-1.9-0.4-2.9-0.9
		c-3-1.5-2.8-4.5-2.8-4.5s-0.1-5.6,0.8-8.5c1.6-5.2,9-6.1,9-6.1s7.2-1.2,9.7-1.6c2.6-0.4,6.1-0.8,6.1-0.8
		c2.6-1.2,17.6-10.2,17.6-10.2C65.2,447.2,91,448,91,448s14.9-0.1,24.7,1c2.2,0.2,2.8,1.4,2.8,1.4s4.4,8.3,4.7,10.2
		c0.3,1.9,0.3,7.6,0.3,7.6l1.6,2.4C125.6,474.1,125.4,479.8,123.7,480.1z"/>
	<path class="st0" d="M87.5,470.8c-0.2-0.6-0.3-2.8-0.3-2.8v-9c0,0,0-1-0.1-1.4s-0.6-0.8-0.6-0.8l-3.1-2.4l-2-1.4l0.1,1.9l2.3,1.7
		v3.1h2c0,0-0.1,8.1,0,9.5s0.6,2.8,0.6,2.8s1.1,3.1,1.3,4c0.3,0.8,0.4,2.3-1,2.5c-1.5,0.1-1.7-1.1-1.7-1.6s0-3.7,0-3.7s0-7.6,0-7.9
		s-0.1-0.5-0.3-0.9c-0.2-0.4-0.8-0.3-0.8-0.3h-2.4v1.7h2v9.9c0,1.2-0.3,4.6,3.2,4.3c3.4-0.4,2.4-4.1,2.4-4.1S87.7,471.4,87.5,470.8z
		"/>
	<path class="st0" d="M79.8,451.7h-13c-0.8,0-1.4,0.6-1.4,1.4v26.8h15.8v-26.8C81.2,452.3,80.6,451.7,79.8,451.7z M78.2,472.6
		c-0.2,0.7-0.5,1.2-0.9,1.7s-0.9,0.8-1.5,1.1c-0.6,0.3-1.3,0.4-2.1,0.4h-4.5v-10.4h4.5c0.7,0,1.3,0.1,1.9,0.3c0.6,0.3,1.1,0.6,1.5,1
		c0.4,0.5,0.7,1,1,1.5c0.3,0.7,0.4,1.4,0.4,2.3C78.5,471.3,78.4,472,78.2,472.6z M77.8,462.2h-9c-0.7,0-1.2-0.5-1.2-1.1v-5.9
		c0-0.7,0.6-1.2,1.2-1.2h9c0.6,0,1.2,0.5,1.1,1.1v5.9C79,461.7,78.4,462.2,77.8,462.2z"/>
</g>
</svg>
